<svg xmlns="http://www.w3.org/2000/svg" width="17" height="17" viewBox="0 0 17 17">
  <defs>
    <style>
      .favi {
        fill: #31493c;
      }

      @media (prefers-color-scheme:dark) {
        .favi {
          fill: #f4a259
        }
      }
    </style>
  </defs>
  <path class="favi"
    d="M16.8901 6.61015C16.6401 5.77015 16.0301 5.30015 15.2001 5.13015C13.1301 4.65015 10.7701 5.60015 10.1701 7.77015C10.1201 7.93015 10.1301 8.07015 10.3101 8.13015C10.4801 8.18015 10.5301 8.04015 10.6101 7.92015C10.8601 7.51015 11.0901 7.06015 11.4001 6.71015C12.5801 5.18015 16.2501 5.13015 16.0101 7.55015C15.5301 9.55015 12.8801 9.63015 11.3001 9.05015C10.0101 8.60015 5.69009 5.54015 2.08009 6.13015C-0.189913 6.48015 -0.819913 9.51015 1.28009 10.6802C3.02009 11.8002 6.17009 10.6602 7.56009 8.87015C7.81009 8.55015 7.34009 8.61015 7.01009 8.87015C6.68009 9.13015 5.80009 9.85015 4.18009 10.3702C0.670087 11.0302 -0.289913 6.64015 3.13009 6.72015C4.38009 6.78015 5.33009 6.90015 6.73009 7.52015C8.13009 8.14015 11.2701 10.2002 13.3601 10.1102C15.1801 10.1202 17.5501 8.69015 16.8901 6.61015Z" />
</svg>