<svg xmlns="http://www.w3.org/2000/svg" width="17" height="17" viewBox="0 0 17 17">
  <defs>
    <style>
      .favi {
        fill: #2D2D2C;
      }

      @media (prefers-color-scheme:dark) {
        .favi {
          fill: #F1E0D5
        }
      }
    </style>
  </defs>
  <path
    class="favi"
    d="M3.3158 8.3346C3.3158 5.47047 5.63758 3.14989 8.50051 3.14989C8.50291 3.14989 8.50531 3.14989 8.50651 3.14989V0.57373H0.733643V8.3466H3.317C3.317 8.3466 3.3158 8.3382 3.3158 8.3346Z"
    fill="#2D2D2C" />
  <path
    class="favi"
    d="M3.3158 17.5604C3.3158 14.6963 5.63758 12.3757 8.50051 12.3757C8.50291 12.3757 8.50531 12.3757 8.50651 12.3757V9.79834H0.733643V17.5712H3.317C3.317 17.5712 3.3158 17.5628 3.3158 17.5592V17.5604Z"
    fill="#2D2D2C" />
  <path
    class="favi"
    d="M9.97161 3.15589C12.8357 3.15589 15.1563 5.47767 15.1563 8.3406C15.1563 8.343 15.1563 8.3454 15.1563 8.3466H17.7337V0.57373H9.96082V3.15709C9.96082 3.15709 9.96921 3.15589 9.97281 3.15589H9.97161Z"
    fill="#2D2D2C" />
</svg>