<svg xmlns="http://www.w3.org/2000/svg" width="690" height="716" fill="none" viewBox="0 0 690 716">
  <path fill="#31493C"
    d="M615.3 123.7C679.5 207 701.9 320.5 684 436 667 550.6 609 667.6 520.6 703.2c-88.4 35.6-207.1-9.7-312.7-66.5S9.9 511 .8 434c-9.2-76.9 64.8-162.3 134.8-247.3C206.2 102 272.7 18.2 359.4 2.7c86-15.5 191.6 37.8 255.9 121Z" />
  <path stroke="#EDFCFC" stroke-miterlimit="10" stroke-width=".5"
    d="M556.4 243.2a72.6 72.6 0 0 1 27.2 33.4c-1.3 12.6 2.6 36.3-7.2 33.7-2-7.2.5-34-4.4-34.1-2.8 0 0 9.4-12-6.5l-2.8 19.8-19.4 5.6.5 1.2c38.2-9.7 7.3 1-10.8 6l16.8 5.7c-2.6 3.6-1 8.7-1.6 10.3-1.3 4-27 38.3-32 46.6-1.1 10.6-3.7 44.3-5.7 50-3 9-12.9 8.7-13.5 4-.5-3 7.5-43.8 4.8-61.1 1.6-11.4 24.2-46.3 24.7-49 .7-2.6 0-24-.7-27.3-4.2-23.3-11.4 1.5-23.7-4.6-3.4-1.6-20.9-20.4-27.6-24.4 5.7-9.6 2.2-4.8-8-14.5 3-5.8 24 17.2 28.4 20.6 19.1 13.8 12 2.3 25-8.2 19-15.4 7.7 5.2 22.4 2.6 1.8-.4 18.3-9.7 19.6-9.8Z" />
  <path stroke="#EDFCFC" stroke-miterlimit="10" stroke-width=".5"
    d="M556.4 243.2c-1.3.1-17.8 9.4-19.6 9.7-14.9 2.6-3.4-17.9-22.6-2.5-13 10.4-5.7 22-24.8 8.2-4.5-3.4-25.4-26.4-28.4-20.6 10.2 9.7 13.7 5 8 14.5 6.7 4 24.2 22.8 27.6 24.6 12.3 6 19.5-19 23.7 4.4.6 3.3 1.3 24.7.7 27.3-.5 2.6-23 37.5-24.7 49 2.5 17.3-5.3 58-5 61 .8 4.8 10.6 5 13.7-3.8 2-5.8 4.6-39.5 5.6-50 4.9-8.4 31-42.7 32.1-46.5.5-1.8-1-6.9 1.6-10.5l-16.8-5.7c18-5 49-15.5 10.8-6l-.4-1.2 19.3-5.6 2.8-19.7c12 15.8 9.2 6.4 12 6.5 5 0 2.2 26.8 4.4 34 9.8 2.6 6-21 7.2-33.6a72.3 72.3 0 0 0-27.2-33.5Zm0 0c8.4-.5 25 23 28 31 .9 11.4-1 23.2-.8 34.6 0 1 5.7 23.3-2.8 8.4.4 5.1-3 8-4.4 3.6-1-3.1-3-33-3.2-41-1.8-2.7-2.2 1.7-5.2 1.3-1.4-.3-6-7.4-7.2-9a72.6 72.6 0 0 0-2.9 13.4c0 6.6 12.4 67.2 13 83.5 0 11.3-3.3 7-3.4 8.8 0 .8 8.6 6.1 10.4 11.3 2.6 6.6 3.4 35.4 5.2 45.4l31.5.4-32.3 1.3c-1.8-14.4-4.2-22.6-3-1.7-24.6 1.2-49.4 0-73.9.8-.4 0-2 2.4-2.4 2.6-28.8 1.3-30.5-6.1-32-6.5-8.4-2.8-58.6-19.8-61.8-20.2-3.1-.4-12 1.4-16.4 1.3 3.8 1.3 25.3.8 23.2 7.1-2 6.1-45.7 4.3-30.8-17.2 12.6 1.3 81.3 28.2 85.8 28.1 1 0 16.5-4.3 18.8-9.2 4.1-8.5 4.8-53 5.6-66 6.7-15.9 14.8-31.2 24-45.8 1-63.3-6.9-22-25.2-32.6-4.1-2.3-19.1-19.4-26.8-23.6-.6-1.3 3-5.7 0-8-5-4-12.4-10.3-3.7-9.4 9 1 27 25.4 37.7 28.2 11-18.2 24.5-20.1 25.3-22 3.4-8.8-9.7-4.5-9.7-23.4-14.5-3.9-11-13.4-1.9-12.4 26.3 18 39.6 12.6 24.5 30.1.1 1.3 10.6 3.4 16.8 6.8Z" />
  <path stroke="#F4A259" stroke-miterlimit="10" stroke-width=".5"
    d="M535.1 339.7c11.4 28.2 27.7 54 34 84-4 2.4-13.2 6.2-9.1 10l-52.9.8c-1.2-11.6-20-10.6-.9-12l2.8-2c.4-18 7.8-36 5.7-54l20.4-26.8Zm-149.2 73.2c1.3-.3 23.1 2.6 25 3.2 13.4 4-12.2 11.4-26.9-2 .5 0 1.8-1.2 2-1.3v.1Zm-.7-9c30.7 7.6 29.6 5-.8 8.1-1.7-.4 0-7.6.8-8Z" />
  <path stroke="#F4A259" stroke-miterlimit="10" stroke-width=".5"
    d="M535.5 337.4c7.6-10.4 21.1-22 14-36.3-7.2 8-7.7 3.5-18.8 1.3l26-7.7 2 2 11.2 78c-25.4 3.4 0-1.4 6.5 14.4a141 141 0 0 1 3.6 31c-.3.4-9.3 4.7-10 2-6.4-30.3-23.4-56.2-34.5-84.9v.2ZM511 207.9c4.9-1.6 23.6 11.3 24.5 13.3.3.8 0 6 .7 8 16.7.3-13.6 7.4 17.6 13.6-34.8 20.6-22.7-.5-26.4-8.8-.3-.5-7.4.3-6.9-6 14.9 6.4-4.2-.3-3.2-11.3-10.2-1-10.6-7.5-6.4-8.8h.1Zm-32.5 223.5c6.7-1.7 23.6-10 25.7-1.3 1.5 7.1-21 2.6-26.1 2.9-.8-.4 0-.7.4-1.7v.1Zm98.2-9c1.8.7 2 8.1 0 8.9-.8.4-16 .4-16.4-.4 5-3.8 10.5-6.6 16.4-8.4Zm5.5-113.2c1.6.2 2.6 7.7 2 9.3-1.6 6.3-1.5-4-3.5-3.7-4.7 16-4.8-6.4 1.5-5.6Z" />
  <path stroke="#EDFCFC" stroke-miterlimit="10" stroke-width=".5"
    d="M536.6 220.8c1-.7 9.2 3.9 9.3 4.4 0 .8-10.8 9.4-9.3-4.4Zm-58 210.6c-2.9.6-3 2.8-4.8.4 10.2-6.2 5.7-2.7 4.8-.4Zm-157.2-5s.3 1.6-.4 1.8c-12.5-.7-58.7 9-62.5 8.8-5.7-.4-3-5.7-8-.8l-76-.4 60-1.3c-9-11.5 20.5-1.3 9.1-14.9 2.6-28.4 13.3-55.3 20.1-82.8-8.2-5.5-11-38.6-15.2-28-2.8 7-2.6 36.7-3.2 47.3-9.8 15.5-11 43-13.7 62-.2.8-1.5-.5-1.5-.8-.7-3.2 7.7-57.2 14.3-62.7.2-11.4-.1-23.3.9-34.6.8-8.3 5.4-15.6 2.7-23.8-9.2 20-8.5 37.5-6.7 59.1a156.4 156.4 0 0 0-13.8 67.6c0 .5 3.7 14.7 0 5.7-4.8-11.7 3.9-60.2 12-72.5-3-20.6-.4-41.6 7.3-61a129 129 0 0 1-.7-48.2c28.2-18.6 6.2 27.8 14.8 35 11 9.1 25.4-8.3 25.7 21 2.4.8-1.4-12.1-1.3-17.3.5-13 9.8-18.7 4.9-33.8-1.3-3.6-8.5-14.2-9.7-11.2 4.1 17.3-4.9 13-16 3.9 1.7-2.9 2-27.8.4-28.5-4.1 1.3-12.6 10.9-14.4 11.3-4.6.9-14.2-2.9-10.9-9.2 3.9-7.1 20.7.8 28.1-9.7-.7-5-20.2 9.4-15.2-8 4.1-15 27.9-15.6 31.6.3 27.8-6 18.5 2.8-3.6 10.1 8.5 1 7.6 19 4.4 20.5-2.3 1-9-1.7-7.6 4.4.5 2.2 23.3 10 12.9 36.2a461 461 0 0 0 12.8 49c2.2 4 13.5 6.4 10.8 22-14-1.5-10.7-9.7-11.6-11.6-4-7.8-8.7-15.2-13.7-22.4 5.4 35.2 9.7 70.5 13 106 1.6 4.9 16.3 8 10.6 11.7-14.2 3.1 4.4.1 9.3 0v-.1Z" />
  <path stroke="#F4A259" stroke-miterlimit="10" stroke-width=".5"
    d="M257 282.6c5 6.2 19 6.2 23.1 8 8.8 4 .7 7.7 7.8 15.7.6 16.3 4.1 32.2 6.3 48.3 2 15.5 3.6 47.6 5.5 57.8.7 3 1.3 5 3.7 6.8l-16 1c-5.2-.8-14-45.3-14.1-48-.3-10 4.9-17.3 4.9-18.4-8-12-16.1-14.1-10-24.6 1 3.9 13 21.6 13 23 .4 3.5-6 7.3-4.7 14.4 5.8 45.7 10.9 60.8 1.7 4-2-11.6 5.2-14.9 4.8-18.4-.4-3.8-30-44.5-26-69.6Z" />
  <path stroke="#F4A259" stroke-miterlimit="10" stroke-width=".5"
    d="M265.7 339.7c18.4 22 5.1 13.3 6.8 35.8 2.9 15.1 6.8 30 11.6 44.6 1.8 1.3 4.5 0 6.1 2 1.2 1.5-1.6 7.4 6.4 7.2l-39.7 6.9c-2.8-6.7-10.7-10.6-11.6-14.9-2.6-11.2 14.6-67.6 20.4-81.5v-.1ZM252 244c16.3-3.1 2.6 28.2 4.5 35 1.6 5.7 19.9 8.3 25.3 7.7 8.7 7.5-23.9-1-26-7-2.6-14 0 16.4 1.5 22.5.9 3.5 12.9 26.3 7.2 24.2 4.1 7.8-3 14.6-1.5-1.7h-1.7c3.2 25.2-15.2-39.4-16-48.2-.7-6.3-1-31 6.8-32.5h-.1Zm36.1 34.5c6.4 9 11.6 38.8 13.3 42.2 2.5 5 15.5 10 10.9 21.3-12-5.5-7.4-8.2-9.3-11.6-5-9-9.8-18-15.3-26.5l.4-25.4Zm-20-89.2c7.3-.2 25.7 11.5.8 18.5-1.8-5.9-24.6 7.9-13-11 2-3 8.7-7.4 12.4-7.5h-.2Zm8.8 22.5c11.4-.5 15.2 20.3-1.5 19.4-13-1-12.2-18.8 1.5-19.4Z" />
  <path stroke="#EDFCFC" stroke-miterlimit="10" stroke-width=".5"
    d="M267.4 230.5c15.7 1 20 34.3-1.3 13.2l1.3-13.3v.1Zm-2.5-17.9c3.2 2.5-3.7 3.5-5.5 5-6.9 5.1-8.3 10-14.5 8-5.4-1.8-6.2-7.4-.8-9.7 5.2-2.2 15.5 1.3 20.8-3.3Zm29.7-12.8c14 .3-25.8 15-26.9 13.4-3-5.2 22.8-13.5 26.9-13.4ZM292 420.1c1.6-1.1 18.1 0 19.8 4.4-20.3 7.8-23.6-1.6-19.8-4.5v.1Zm-50.4 8c18.7-1.7 9.8 15.6-7.8 2.8.4-1 6.7-2.6 7.8-2.7Zm143-259.7c-.7 31.7-19.3 31.8-27.1 2.9.6-3.5 22.7-12.6 27.2-2.8ZM353.7 412v1.7c2.8 12-14.2 10.3-30.1 11.2-.8.6-1.2 1.5-2 1.6-8.5-7 9.3-8.6 14-15.3 2 4.8-18.7 10-14.5 13 12.2-5.7 18.6-10.6 32.6-12.2Z" />
  <path stroke="#EDFCFC" stroke-miterlimit="10" stroke-width=".5"
    d="M350 413.7c2.3.4 2.5 4.4 1.9 6-1 2.5-22.3 4.6-26.5 4 3-2 23.2-10.3 24.5-10Zm18.4-264.4c7.5-1 18 3.2 21.2 10.8-.8 1.3-15-5.7-33.3 1.2-2.6-1.3 4.6-11.1 12-12Z" />
  <path stroke="#F4A259" stroke-miterlimit="10" stroke-width=".5"
    d="M366.8 150.8c7.1-1.4 15 1.2 19.5 6.9-.7 1-18.3-2.7-27.6 2-3-2.2 5.4-8.4 8-8.9h.1Zm164.3 44.3c11.4-2 23.6 11.9 15.2 21.7-13-9-30.3-6.7-22-17.3 1.1-1.6 6.4-4.4 6.8-4.4Z" />
  <path stroke="#EDFCFC" stroke-miterlimit="10" stroke-width=".5"
    d="M384.8 168.5c-.8 31.6-19.4 31.7-27.2 2.8.6-3.5 22.7-12.6 27.2-2.9v.1Zm0 0c.1 17.1-4.3 24.7 16.4 24.9 62.3 58.6 21.3 70 18.8 84.8-.6 4.7 4.6 18.1-6.7 10.9-4.7 13.8-10.3 4-6.8-10 .2-1.4 3.3-4.6 3.8-6.6 7.6-23 12-22.3-.2-32.4-8.5 21.2 6.5 31-16.8 34.5-7.7 1.2-43.7.5-23.2 4.8 9.3 2 31.2-7.2 33.1-4.4 1.3 26.4 2.7 54.5-3.2 80.3 4.3 5.9 9.6 44.5 4.4 46.3-3.8 1.3-17.2-7.5-20.8-10.4l-3.2 21-26.8 1.5V412c26.3-2.8 27 11.2 28.7-30.2-7-21.5 0-45-6-67L360 357.7c3.5 14.5 2 45.4-11.3 53 11.1-11.5 14.4-36.7 9.7-52.2 4.3-9.9 6.9-20.3 10.3-30.6 2.6-7 10-14.6 6.1-22-3 10-10.8 22.8-14 31.7-2.4 6.5-.8 15.2-7.1 20 8.2 7.6.9 49.3-6.9 51.8-.8.4-9.7 1-10 .6 1.1-21.3 1.2-42.5-.8-63.6 6.8-24.5 9.8-49.8 14.4-74.7-.7-2.4-21.1-6.1-23.2-21-1.3-9.4 7-42.2 14.8-47.9l24.6-10.7a386 386 0 0 1-13-23.7m31.3 0c18.2-4.9-6-13.7-32.4-4.9l-1.3 2c.1 1 2.5 2.7 2.5 3m0 0c2.5 4.2 12.2-8.3 26-5.8 2.5.6 10.6 8.5 10 2.1-.8-8.4-34.2-1.8-36.4.4-.7.5 0 2.8.4 3.2Zm179 27.2c8-.7 20.7 12.2 13 19.3-5.7-5.2-21.5-7.6-22.1-10-.8-3.2 6.2-9 9.1-9.3Z" />
  <path stroke="#EDFCFC" stroke-miterlimit="10" stroke-width=".5"
    d="M351.5 272.2c6 0 16.1 8.4 19.3 8.8 8.3 1.2 30.1-7.6 31.7-4.4.5 23.9 2.5 55.8-4 78A67 67 0 0 1 404 374c4 28 4.3 34.2-20.9 15.1 1.4-7.8-2.6-14.9-3.2-22.5-1.3-17.7 3-44.8-5.2-64.7-3.2 12-11.9 26.1-15.6 36.6-1.3 3.9.6 11.4-7.2 19.3 8.4 8.5 3.2 58.7-14.5 50.6 3-21.1.8-42.3 0-63.4 6.9-24 9.3-48.5 14-72.8Zm32.1-86.8c-.2 7.8 7.8 5.6 11.6 10.8-26 47.2-10 18.1-36.9.8 12.2-7.8 20.3 1.7 25.3-11.6Zm-30-17c-.3-.3-1-2.6-.4-3.1 2.2-2 35.4-8.8 36.4-.4.6 6.5-7.5-1.5-10-2-13.8-2.6-23.3 10-26 5.6Z" />
  <path stroke="#EDFCFC" stroke-miterlimit="10" stroke-width=".5"
    d="M354.7 199c1.8 0 5 0 6.5.8 7.8 3.7 20.7 34.5 10.8 19.7-3.9-5.4-2.2-14.4-17.3-20.4Z" />
  <path stroke="#F4A259" stroke-miterlimit="10" stroke-width=".5"
    d="M398.8 194.3c3.5-.4 36.2 36 33.3 45.3-.6 2-21.9 20.8 1.2.5 7 11.7-14.2 33-14.8 39-.3 1.9 4 11.8-2.1 10.8-.7 0-2.6-3.8-3.9-3.3-.6.3-3.3 12.6-6 6.1-3.1-7 13.8-39.6 13.5-43.4 0-2.9-8.3-9.5-10.3-12 7.9-11 8.4-16.2-.5-2-4.7-29.8-6.1 22.5-7.6 30.9-1.7 3.5-13.7 3.4-17.6 5.6 0 1 18-2 18.5-4.8l4.3-31a359 359 0 0 1-1.2 31c-1.9 8-36.7 8.8-43.7 7.6-19.7-3.2-4.5-15.5 3.7-6.8-8.3 4.2 3.2 3.6 1.5-1.6-1.2-3.6-13.2-1.8-15.2-6.5-2-18 .4-28.3-14.9-40.6 1.8 5.6 9 9.5 10.9 14.9 4.6 14 1.7 46.2-1.6 2.4a40 40 0 0 0-10-3.6c-9.3.2 7.3 3 8.3 4.4 1.5 2 2.1 20.6 3.3 22.5.9 1.6 6.7 2 6.4 4.8-1 9.9-25.7-.5-26.4-16.8-.5-8.8 8.5-40.1 16.4-44.6 20.6-11.8 25.3 21.2 32 21.7 7.6.5 19.3-30.3 22.5-30.5Z" />
  <path fill="#EDFCFC"
    d="M329 529.2a3.4 3.4 0 0 1 2.2 3.6 94 94 0 0 1-.9 8.8l-2.1 11.4c-.3 2-.3 4.1-.2 6.2.2 2 1.4 3.1 3.2 3.5l.9.1a5 5 0 0 1-1.3-4.4c.4-2.2 1.4-4.3 3-5.8 1.3-1.2 2.8-1.1 4.2-.2 0-.2 0-.4.2-.5.4-.3.7-.8 1.1-.9.4 0 1.1.4 1.2.7.3 1.1.6 2.3.5 3.5 0 1.7-.3 3.3-.5 5v1c0 .4 0 1 .6.8.3-.1.6-.6.8-.9.1-.2 0-.5 0-.8l-.3-5.7c0-.3.1-.8.4-1.1.2-.4.7-.8 1-.8.5 0 1 .4 1.3.7.2.4.3 1 .2 1.4l-.2 4.3c0 1 .3 2.2.6 3.2.1.8.8 1 1.5 1.1.8 0 1.4-.2 1.7-.9.4-1 .7-2 .9-3.2l1-6.4.7-1.7c.3-.3.8-.7 1.2-.7.4 0 1 .5 1.1.9.2.8.2 1.6.2 2.5 0 .9-.3 1.8-.4 2.7l2.5-2.4c.1-.1.1-.5 0-.8 0-2.9 2.2-5.9 4.8-6.4a2.8 2.8 0 0 1 3.1 1.3c.7 1 .6 2.3-.4 3.2-1 1-2.3 1.9-3.5 2.7l-1.3.8c.7 1.4 1.6 2.5 2.7 3.6l2 2.3 2 3.2.8-2.3c1.3-3.4 1.8-7 2.1-10.7.4-2.9.5-5.8.8-8.7 0-.5-.1-.7-.6-.9-1.8-.8-3.6-1.4-5.7-1.1a5.1 5.1 0 0 0-3.9 2.5c-.1.2-.1.4-.3.5-.3.2-.7.4-1 .4-.2 0-.4-.6-.4-.8 0-1.5.8-2.7 1.9-3.7 1.9-1.6 4.2-1.7 6.5-1.4l3.5.7V532.3c0-.5.4-.9.9-1 .5 0 1 .2 1.2.6.3 1 .4 1.9.5 2.8.2 1.4.1 3 .1 4.4 0 1.2.3 1.4 1.5 1.4v-6.1a1.2 1.2 0 0 1 1.3-1c.6-.1 1.1.3 1.2.8l.3 2.7v3.7c1.8 0 3.5-.3 5-1 .8-.5 1.2-1.1 1-2 0-.8-.4-1.4-1.3-1.6-.3 0-.5-.6-.5-.8 0-.6.4-.7 1-.7 2.5.2 3.8 2.6 2.6 5-.5 1-1.3 1.6-2.2 2.2-1.5.7-3.1 1.1-4.8 1.3h-.8l.3 9.7.7-.3c3-1.3 5.7.3 5.8 3.6 0 1.7-.3 3.4-.3 5 0 1.2.1 2.4.4 3.6.2 1.4.8 1.8 2.2 1.7l2.3-.2-.4-.4c-2-1.4-2.6-3.4-2-5.7 0-.7.2-1.3.5-2 1.4-3 4.3-4.2 7.4-3l.3.1c.3-.6.6-1.2 1.4-1 .9.1 1.3.8 1.3 1.5 0 1 0 1.9-.2 2.7l-1 4.2v.9c-.1 1.2.2 1.8 1 2.2.9.3 2 0 2.7-.7 1-1 1.5-2.4 1.6-3.9l.6-8 .7-8.9c0-.3 0-.6-.4-.8-1.9-.7-3.8-1-5.7-.7-1.3.2-2.3.8-2.7 2-.2.5-.6.8-1 .5-.3-.1-.5-.6-.5-.9 0-1.8 1.7-3.5 3.8-4 2-.3 4-.2 5.8.3l.8.1.5-4c0-1 .2-2 .5-2.9 0-.4.5-1 .8-1 .4 0 1 .3 1.3.7.4.5.6 1.2.6 1.8l-.5 5.8c0 .6 0 1 .7 1.3l3.2 1.3a3.5 3.5 0 0 0 3-.3c1.2-.6 1.3-1.8.3-2.8-.2-.2-.4-.7-.2-1 .1-.2.6-.3 1-.2 1 .2 1.9 1.6 1.8 3-.3 3-2.9 4.8-6 4-1-.2-1.9-.7-2.8-1l-1.3-.7-.4 3.7a98.4 98.4 0 0 0-.3 16c.2 1 1 1.2 1.7.5.6-.5.9-1.1.9-2 0-3 .4-5.9 1.4-8.7.1-.6.4-1.2.8-1.7.6-.8 1.5-.7 2 .2a4 4 0 0 1 0 3.4c-1 2.6-1.6 5.4-1.7 8.2 0 1.3.7 1.8 2 1.4 1.2-.2 1.9-1 2.1-2l.4-2c.1-.7.4-1.3 1-1.4.8-.2 1.4.2 1.6.9.2.7.2 1.4.3 2.2l-.1 1.8c0 .7.3 1.1 1 1 .6 0 1.4 0 1.9-.4 2-1.3 3.5-3.2 4.1-5.5V559c-.1-1.7-.5-3.4-.6-5 0-1.4.6-2.4 1.5-2.6.9-.1 2 .7 2.4 1.9.6 1.9.9 3.9.6 5.8l-.2 3c0 .5.1 1.1.3 1.6.1.3.5.6.7.9.2-.5.6-.9.6-1.3l-.2-3.3a5.7 5.7 0 0 1 6.5-5.8 5.8 5.8 0 0 1 5 5.3v.5c.2.2.4.5.6.5.2 0 .6-.2.7-.4.3-1.2.5-2.5-.2-3.6a11 11 0 0 1-.6-.9c-.5-1-.3-2.1.7-2.6.9-.6 2-.2 2.7.8l.5 1.2c.9-1 2-1.7 3.3-1.8 3-.4 5.3 1.8 5 5v2l.4.8.7-.6c.4-1.2 1-2.4 1-3.6 0-4.6-.3-9.3-.5-14l.1-5.2c0-.7.4-1.5.8-2 .8-1.2 2.2-1 2.6.4.3 1.5.5 3 .5 4.5L457 554v.9l.5-.7 7-7.8c.4-.5.9-.9 1.4-1.2.6-.4 1.3-.4 1.8.1.6.5.7 1.2.3 1.7-.7 1-1.5 1.8-2.3 2.6-3.2 2.7-5.8 5.8-8.6 9l4.8 4.6c3 2.8 6.2 5.4 10 7.2 1.2.6 2.5 1.2 4 1.1.6 0 1.2-.2 1.6-.5.6-.4 1-.4 1.5 0v.9c-1.5 2.2-3.8 2.3-6 1.5a45.9 45.9 0 0 1-15.7-10.3h-.3l.5 3.8.8 4.8v1c0 1-.9 1.5-1.8 1-.8-.3-1.4-.9-1.5-1.8a149 149 0 0 1-.8-6.3V562l-.7.4c-1.6.9-3.1.2-3.6-1.6-.2-.5-.2-1.2-.3-1.8l-.1-1.4c-.2-1-1.3-1.6-2.3-1a3.8 3.8 0 0 0-1.9 2.3l-1.4 6.4-.6 2.5c-.4.9-.9 1.2-1.6 1-.6-.1-1.1-.6-1.1-1.5v-4.7l-2 .4c-.7 1.8-1.8 3.4-4 4a6 6 0 0 1-5.6-1c-2 1.5-2.7 1.3-4.9-1.5-.6.6-1.1 1.4-1.9 1.9-1.1.8-2.3 1.7-3.6 2.2-2 .8-3.7.4-5.5-1a6.1 6.1 0 0 1-4 1c-1.4-.2-2.3-1.1-3-2.4-1 .7-2 1.4-3.3 1.4-1.3 0-2.2-.9-3-1.9-1.6 2-3.7 2.1-6 1.8-.1 0-.3 0-.4-.2-1.6-1-3.1-.4-4.6 0-1.7.3-3.3.7-5 .7-3.3.1-4.9-1.4-5-4.7v-8.8c-1 .1-1.7.5-2.2 1.2-.8 1.1-.9 2.3-.8 3.6v8.7c-.5 1.6-1.4 2-3 1.2l-.3.3c-1.6 1.2-3.5 1-4.4-.8-.6-1-.8-2.2-1.1-3.3l-.2-1.3c-1 1.6-2.1 3.1-3.3 4.7-1.4 2-3.5 2.6-6 2.3-2-.3-3.8-1.1-5.4-2.4l1.1 7.4.9 4.9c0 .3.2.5.5.7 4.1 2.4 8.2 5 12.8 6.5 4 1.4 8.2 1.7 12.2-.1a7 7 0 0 0 4.3-5.1c.5-2.6-.9-5-3.4-6a11.8 11.8 0 0 0-12.8 3c-1.1 1.3-1.9 2.8-2.8 4.3-.3.4-.4.9-1 .7-.7-.2-.7-.7-.5-1.2a13 13 0 0 1 10-9.3c2.5-.6 5-.6 7.7 0 3 .6 5 2.3 6 5.2a7.7 7.7 0 0 1-2 8c-3 3-6.5 4.2-10.5 4.3a26 26 0 0 1-12.7-3.3c-2.1-1-4.1-2.3-6.2-3.4l-.8-.5 1 4.5 3.6 12-.2 1.4h-.8c-.9-.7-1.6-1.7-2-2.9-1-2.8-1.8-5.7-2.7-8.5l-.7-2.5-1.1 1.2c-1.7 1.6-3.6 3-5.7 4.2a13.6 13.6 0 0 1-14.2-.2c-3.3-2-5-5.5-4.5-8.7a9 9 0 0 1 7.3-7.4l2.7-.3c3.7 0 7.2.7 10.8 1.7l2.7.9-2.2-14.7h-3.4c-1.3-.2-2.1-1.2-2.8-2.3-1.4.7-1.9.7-3.3.3h-.9a19 19 0 0 1-5.5 1.2c-4 .1-6.5-1.8-7.4-5.6l-.2-.7-2.8 3c-.3.2-.6.6-.8 1-.8 2.3-2.4 4.3-4.6 5.6-.2 0-.4.4-.4.6l.9 18.8-.1 3.9c0 .3-.4.8-.8.9-.3 0-.7-.3-1-.5-.2 0-.3-.3-.4-.5-.4-1.4-1-2.8-1.1-4.3-.3-4.3-.4-8.6-.5-13l-.2-4.9c-1.6 0-3 0-3.7-1.7v-1c.4-1 1-1.4 2-1.7l.7-.2c.5-.1.7-.4.6-1l-1-5.7c-.2-2 .8-3.7 2.6-4.3 2.8-.9 7.1.9 7.8 4.4l.1.3c1.1-1.3 2-2.6 2.4-4.1.3-.7.5-1.5.5-2.2 0-2.7-.2-5.3-.3-8 0-3.8-.1-7.7.4-11.5.2-1.3.6-2.6 2-3.2h1.2Zm9.7 51-2 .1c-3 .3-5 2.2-5.3 5a6.6 6.6 0 0 0 3.9 6.9c2.2 1 4.7 1.3 7.1.9 3.6-.8 7-2.6 9.5-5.2.6-.6 1-1.1.6-2l-.5-2c0-.4-.3-.8-.6-.9-4-1.6-8.3-2.6-12.7-2.8Zm32.2-37.4v7c0 2.7-.3 5.4-.4 8.1l-.5 6.3c0 1 .3 2.2.6 3.2.2.7.6.7 1 .2a4 4 0 0 0 1.2-2.7v-21.4c-.1-.2-.2-.4-.4-.4l-1.5-.3Zm-19 22c1.3-1 2.7-1.3 4.2-1 1.3.3 2.5 1 3.8 1.4l2.2 1V565c-.2-.8-.6-1.5-1-2.2-1.6-2.3-3.3-4.4-5-6.6-3 2-3.6 5.3-4.1 8.7Zm84.2-4.3c-.3-.8-.5-1.8-1-2.6-.9-1.5-2.8-1.5-3.8.1a6.3 6.3 0 0 0-.9 4.3c.2 1.1 1.3 2 2.5 2.2 1.2.1 2.2-.4 2.6-1.7l.6-2.3Zm-119.8 2.9 2.3-1.4c.2 0 .3-.2.4-.4.2-1.4.6-2.8.2-4.3-.4-1.7-2.2-2.5-3.7-1.6-.2.1-.6.6-.5.9l1.3 6.8Zm75.9-4.7c-.2-.8-.4-1.3-1-1.5-1-.4-2.6.2-3 1.3l-.6 1.2c-.7 2.2 0 3.5 2 4.3.7.3 1.2.2 1.4-.5l1.2-4.8Zm-54.6-1.6v-1.6c0-.6-.6-1.4-1.2-1.6-.6-.2-.8.3-1.1.7a7.2 7.2 0 0 0-1.3 5.1 2.3 2.3 0 0 0 2 2.1c.7.1 1-.1 1.2-.9l.4-3.8Zm23 10.9-3.6-1.6-1.4-.4c-.8 0-1.3.5-1 1.2 0 .3.3.7.5.8 1.3 1 4 1 5.5 0ZM328 542c.4-3.2 1-6.3.5-9.4-.6 3-.6 6.2-.5 9.4Zm29.8 10.2.2.2 2.6-2.2-.2-.2a3.8 3.8 0 0 0-2.6 2.2Z" />
</svg>