<svg xmlns="http://www.w3.org/2000/svg" width="150" height="302" fill="none" viewBox="0 0 150 302" preserveAspectRatio="xMidYMid slice">
  <path fill="#EDFCFC" fill-rule="evenodd"
    d="M42.4.8h1.3L0 55.2v-1.6L42.4.8Zm-33 65.5c-3.2 4-6.4 8-9.4 12.2v1.7a390 390 0 0 1 10.2-13.3l53-66H62L9.4 66.2ZM0 29.3v1.6L24.1.9h-1.3L0 29.2Zm2.1 177.1A390.9 390.9 0 0 1 64 97.4L141.6.9h-1.3l-77.1 96a391.8 391.8 0 0 0-62 109.3L0 209.2v2.9l2.1-5.7Zm147.9 5.3a393.3 393.3 0 0 0-28.3 60.2l-11.2 30h1.1l11-29.7a391.3 391.3 0 0 1 27.4-58.5v-2ZM36.3 81.6A392 392 0 0 0 0 135.3v2a391.3 391.3 0 0 1 37-55.1L102.5.8h-1.3L36.3 81.6Zm-13.5-7.7A392.6 392.6 0 0 0 0 105.4v1.9a393.5 393.5 0 0 1 23.6-32.7L82.8.8h-1.2L22.8 74ZM0 171.5a391.2 391.2 0 0 1 50.5-81.7L122 .8h-1.3l-71 88.4A391.8 391.8 0 0 0 0 169.1v2.4ZM15.6 214a391.1 391.1 0 0 1 61.8-109L150 14.8V13l-73.4 91.3a391.7 391.7 0 0 0-62 109.3L0 253v2.8L15.6 214Zm80.1 43a391 391 0 0 1 54.3-99.3v-1.6a391.9 391.9 0 0 0-55.2 100.5L78 301.8h1L95.8 257Zm13.4 7.6a391 391 0 0 1 40.9-80.3v-1.8c-17 25.5-31 52.9-41.8 81.7l-14 37.6h1.1l13.9-37.2Zm-26.8-15.3a390.9 390.9 0 0 1 61.8-109l5.9-7.3v-1.6l-6.7 8.3a391.7 391.7 0 0 0-62 109.3l-19.6 52.8h1l19.6-52.5Zm-40.4-22.9a391.1 391.1 0 0 1 61.8-109L150 60v-1.6L103 117A391.7 391.7 0 0 0 41 226l-28.1 75.7h1l28-75.4Zm-13.4-7.6a390.9 390.9 0 0 1 61.8-109L150 35.6V34l-60.5 75.3a391.7 391.7 0 0 0-62 109.3L0 292.7v2.8l28.5-76.7Zm40.3 23a391.1 391.1 0 0 1 61.8-109l19.4-24.2V107l-20.1 25.1a391.7 391.7 0 0 0-62 109.3l-22.5 60.4h1.1l22.3-60ZM55.4 234a390.9 390.9 0 0 1 61.8-109L150 84.3v-1.6l-33.6 41.8a391.7 391.7 0 0 0-62 109.2l-25.3 68.1h1.1l25.2-67.7Z"
    clip-rule="evenodd" />
</svg>