<svg xmlns="http://www.w3.org/2000/svg" width="148" height="301" fill="none" viewBox="0 0 148 301" preserveAspectRatio="xMidYMid slice">
  <g fill="#EDFCFC" clip-path="url(#a)">
    <path
      d="M1 39.8c0 8.8 1.3 13 3.5 13.4-2.2.3-3.5 4.6-3.5 13.4 0 8.1 21.4 0 24.9-1.4v-24c-3.5-1.4-25-9.6-25-1.4ZM1 80.5c-2 16.4.6 16.4 2.8 17 2.3.7 18.1-7.2 18.1-7.2S14.3 96.9 5.4 101c-8.9 4.2-6.3 9.2-6 16.2.3 7 15.9-3.5 15.9-3.5C-2.5 127 1.9 130 1.9 130s12.9-5.3 24-20.9V65.5c-4.2 4-18 9-18 9s-6.3.6-7 6Z" />
    <path
      d="M9.4 38.6S25 49 25.4 42.1c.2-7 2.8-12-6.1-16.1a81.1 81.1 0 0 1-16-10.3h18.2l.4.4-.8-.5H3.6A77.5 77.5 0 0 0 21 22.6c1.6-.5 3.3-.6 3.5-6.8H.4c-.1 2.3 0 5.6.6 10.2.6 5.3 7 6 7 6s13.7 4.9 17.9 9V15.5h-27v18.6A62.7 62.7 0 0 0 22.7 55S27.2 52 9.4 38.6ZM81 2.3c-6 0-9 1.3-9.2 3.6-.2-2.3-3.1-3.6-9.2-3.6-5.5 0 0 22.2 1 25.8H80c1-3.6 6.5-25.8 1-25.8Z" />
    <path
      d="M53.2 2.3c-11.2-2-11.2.6-11.7 3-.4 2.2 5 18.7 5 18.7S42 16.1 39.2 7C36.4-2.3 32.9.3 28.2.6c-4.8.4 2.4 16.5 2.4 16.5-9-18.5-11.2-13.8-11.2-13.8S23 16.6 33.6 28h29.8c-2.8-4.3-6.1-18.6-6.1-18.6s-.5-6.6-4.1-7.2ZM113 17.1S120.1 1 115.4.6c-4.7-.3-8.2-3-11 6.3A94.5 94.5 0 0 1 97.1 24s5.4-16.5 5-18.8c-.5-2.3-.6-5-11.7-3-3.7.7-4 7.3-4 7.3S83 23.8 80.1 28.1H110c10.6-11.5 14.2-24.8 14.2-24.8S122-1.4 113 17ZM140.4 29.2c-1-1.6-2.5-1.8-4.4-.6 1.8-1.3 2.4-2.8 1.4-4.4-.9-1.6-18.2 11.5-21 13.7l2.6 4.6c3.2-1.7 22.3-11.7 21.4-13.3ZM135.9 21.5c-.2-4-2.4-2.7-4.3-1.6-2 1-14.7 11.1-14.7 11.1s5.8-5.3 13-11c7-5.5 4.3-5 3.3-6.2-1-1.2-13.2 9.2-13.2 9.2 13.7-12.1 9.6-10.3 9.6-10.3s-10.3 8-18.1 16.9l4.8 8.2c3.2-3 14.3-11.3 14.3-11.3s5.4-3.6 5.3-5ZM133.4 45.8s14.5-6.4 14-8c-.5-1.4 1-3.7-7 .3s-15.2 7-15.2 7 14.4-7.2 16.2-8.5c1.8-1.3 4-2.7.6-4.8-1.2-.6-6.7 2.7-6.7 2.7s-12.2 6.5-16.2 8l4.8 8.2c11.2-3 22.7-9 22.7-9s3.5-3-13.2 4.1ZM89.3 106c2 0 3-1.2 3-3.5.1 2.3 1 3.6 3 3.6 1.9 0 0-22.2-.2-25.9h-5.5c-.3 3.7-2 25.9-.3 25.9ZM98.5 106c3.7 2.1 3.7-.6 3.9-2.9.1-2.3-1.7-18.8-1.7-18.8s1.5 8 2.4 17.2c1 9.2 2.1 6.6 3.7 6.2 1.5-.3-.8-16.5-.8-16.5 3 18.5 3.7 13.9 3.7 13.9s-1.2-13.3-4.7-24.9h-9.8c.9 4.4 2 18.6 2 18.6s.1 6.6 1.3 7.3Z" />
    <path
      d="M78.8 91.2s-2.4 16.2-.8 16.5c1.5.4 2.7 3 3.6-6.2 1-9.3 2.4-17.2 2.4-17.2s-1.8 16.5-1.6 18.8c.1 2.3.1 5 3.8 3 1.2-.7 1.4-7.3 1.4-7.3s1-14.2 2-18.6h-9.8a144 144 0 0 0-4.7 24.9s.7 4.6 3.7-13.9ZM113.9 258c-3-5.1-5.5-6.9-7.5-5.9 1.7-1.4 1.4-4.5-1.6-9.6-2.8-4.7-18.3 11.6-20.8 14.3l8.2 13.9c3.4-1.1 24.4-8 21.7-12.7ZM100 234.5c-3.8-10.5-6-9.2-8.2-8.3-2 .8-13 14-13 14s4.3-8 10.5-15.2c6.2-7.1 2.3-8.7-.3-12.5-2.6-3.9-12.4 10.6-12.4 10.6 10.7-17.3 5.8-16.7 5.8-16.7s-9 10-13.3 25l14.8 25.2c2.2-4.6 12.3-14.9 12.3-14.9s5.2-3.8 3.9-7.2ZM117.7 292.9s16.8-2.4 14.7-6.6c-2.1-4.2-1.7-8.5-10.6-6-9 2.4-17.8 2.7-17.8 2.7s16.3-4 18-5.6c1.6-1.6 3.8-3-3.4-11.4-2.4-2.7-8 .3-8 .3S97.2 271 92.3 271L107 296c14.8 3 27.5-1 27.5-1s2.7-4.2-17-2.2ZM36.4 196.5c3.7-6.2 4.4-10 2.6-11.4 2 1 4.9-1.3 8.6-7.5 3.4-5.8-18.3-11.7-21.8-12.6l-10 17C18 185 33 202.2 36.3 196.5ZM53.4 167.8c8.4-10.5 6.3-12 4.6-13.6-1.6-1.7-18.4-4.7-18.4-4.7s9.3-.6 18.5 1.4c9.3 1.9 9.3-3 11.9-8.1 2.6-5.1-15-6.2-15-6.2 20.7.3 18.2-4.3 18.2-4.3s-13.1-3.3-29 1.7l-18.3 30.8c5.3-.6 19 3.4 19 3.4s5.7 3 8.5-.4ZM4.6 222s8.9 15.8 12 11c3.2-4.7 7.5-6.9 1.6-14.6-5.8-7.7-9.5-16.6-9.5-16.6s10.2 14.2 12.3 15c2.2.8 4.4 2 9.6-10.5 1.7-4.1-3.5-8-3.5-8s-9.6-11-11.5-16L-2.6 213c3 17 11.7 27.8 11.7 27.8s5.1.2-4.5-18.8Z" />
  </g>
  <defs>
    <clipPath id="a">
      <path fill="#fff" d="M-2.6 0h150v301h-150z" />
    </clipPath>
  </defs>
</svg>