<svg xmlns="http://www.w3.org/2000/svg" width="151" height="302" fill="none" viewBox="0 0 151 302" preserveAspectRatio="xMidYMid slice">
  <path stroke="#EDFCFC" stroke-miterlimit="10" stroke-width=".5"
    d="M29.8 281.8 43 258.9h26.4l13.2 22.9L71.5 301h3.1L85 283h26.4l10.3 18h3.2l-11.1-19.2 13.2-22.9h24v-2.5h-24.2l-13.2-22.9 13.2-22.8H151V208h-24.2l-13.2-22.8 13.2-23H151v-2.5h-24.2L113.6 137l13.2-22.9H151v-2.5h-24.2l-13.2-22.9L126.8 66H151v-2.6h-24.2l-13.2-22.9 13.2-22.8H151V15h-24.2l-8.6-15H115l9.4 16.3-13.2 22.9H84.8L71.6 16.3 81 0H78l-8.7 15H42.8L34.2 0H31l9.4 16.3-13.2 22.9H1v2.5h26.4l13.2 22.9-13.2 22.8H1V90h26.4l13.2 22.8-13.2 22.9H1v2.6h26.2L40.4 161 27.2 184H1v2.5h26.4l13.2 22.9-13.2 22.8H1v2.6h26.4l13.2 22.9-13.2 22.8H1v2.6h26.4l10.3 18H41l-11.1-19.3Zm94.8-24.1-13.2 22.8H85l-13.2-22.8L85 234.8h26.4l13.2 22.9Zm-.2-48.3-13.2 22.8H84.8l-13.2-22.8 13.2-22.9h26.4l13.2 22.9Zm0-48.3L111.2 184H84.8L71.6 161l13.2-22.8h26.4l13.2 22.8Zm0-48.3-13.2 22.9H84.8l-13.2-22.9L84.8 90h26.4l13.2 22.8Zm-13.2-71 13.2 22.8-13.2 22.8H84.8L71.6 64.6l13.2-22.9h26.4Zm-81.6-1.4 13.2-22.8h26.4l13.2 22.8-13.2 22.9H42.8L29.6 40.4Zm.2 48.3L43 65.8h26.4l13.2 22.9-13.2 22.8H43L29.8 88.7Zm-.2 48.3L42.8 114h26.4L82.4 137l-13.2 22.8H42.8L29.6 137Zm0 48.3 13.2-22.9h26.4l13.2 22.9L69.2 208H42.8l-13.2-22.8Zm.2 48.2L43 210.7h26.4l13.2 22.8-13.2 22.9H43l-13.2-22.9Z" />
</svg>