<svg xmlns="http://www.w3.org/2000/svg" width="145" height="301" fill="none" viewBox="0 0 145 301" preserveAspectRatio="xMidYMid slice">
  <path fill="#EDFCFC"
    d="M2.4 301c-2.6-20.3 13.2-39.2 30.1-47.4 9.5-6.4 29.7-7.8 28.5-23.3C57.2 196.1 12.7 170 3.4 131-8.2 91.6 11.5 48.8 41.5 26.5 70 4.8 108-1.6 140.8.7c-35 8.5-73.1 10.7-102.4 36C.8 69.2-7.2 123.2 24.3 164 36 183.4 74 216.8 59.7 240.8c-6.3 5.7-16.3 8.4-24.2 12.2-17.3 7.6-35.3 25.3-33.1 48Zm58.3-50.6c18.4-12 8-39-2.2-53.8-15-22.6-36-41.7-43.7-69.2-9.3-32.7 7.4-68 31.9-87A108 108 0 0 1 80 23.2c7.9-4.8 16.3-8.7 25-12C56.8 15.7 1.4 57.9 9.6 118.8c4.1 28 24.4 49.1 40 69 20.3 24.6 34.1 57.8-3.2 69.8a86.6 86.6 0 0 0 14.4-7.1ZM78.1 229c-3-47.4-57.1-70.7-58.4-119a80.5 80.5 0 0 1 32.1-63.6c10.1-6.3 18.8-14 29-20.5C51 34.7 19.1 65 17 102.4c-6.1 57 71.9 84.8 59 141 1.7-4.5 2.3-9.5 2.1-14.4Zm1.3-23.7c-9.8-23-28-39.8-41-60.3C12 106 32.8 73.5 60 44.3c-23.8 14.5-44.8 51.4-32.7 82.8 12.7 33.8 48.3 56 56.1 91-1-4.4-2.3-8.7-4-12.8Zm-9.8-28.6C36.2 132.8 16.5 116.3 49 62.3c-47.4 57 5.5 87.3 32 132.2-3.4-6.5-7.3-12.3-11.3-17.8Zm-11.1-22.5c-22-28.1-26.4-39.5-16-74.5-23.9 40.7 14.7 71 35 100-6.3-9.5-13-17.6-19-25.5Zm41.2-38.9c-12.2 8.2-22.8 24.2-17.9 40.1 5.1 14 18 23 28 33.3 17 16 33 41.9 23 67a67.8 67.8 0 0 1-20.7 26.6c-3.6 6.2-7.5 12.5-9.9 19 9.4-9.7 22.3-18.8 30.2-31 20.2-28.7 3.9-65.3-19.2-85-10-9.6-23.8-19-28.8-31.7-7.4-23.6 19.7-43 36.2-48.5-7.6 2.5-14.7 5.9-20.8 10.2Zm-18.4 6.8c-24 35.3 7.2 56.4 29.2 79 15 15.2 25.2 42.3 9.7 61.3-2 6.2-5.3 12.2-8.5 17.7 31.6-25.8 25.2-61.2-3.2-86.7C97 182 81.3 172 76 155.6c-5.8-18.2 7.1-38.5 19.6-47.3A58.5 58.5 0 0 0 81.3 122Zm-11 3.8c-27.5 64 68 70 47.8 134.7 15.6-20.3 1-46.8-15.4-61C76.5 177.8 53 154.1 75 117.8a60.3 60.3 0 0 0-4.5 8ZM59 146c-1.9 40 41.7 53 53.9 85.5.7 4 4 6.5 5 10.8-1-45.9-73.5-53-55.8-113.4-1.8 5.4-3 11.1-3.1 17Zm-5 12.5c5.4 31.7 37.2 45.2 51.3 70.2 1.7 1.3 3.6 2.8 5 4.4-14.5-33.8-59.8-43.3-57-90.7-.5 5.2-.3 10.7.8 16.1Zm-2.5 8.9c6.1 18.9 21.4 32.8 34.6 45.2 5.6 4.6 9.1 11.7 15.7 14.5-17.9-23.8-50.3-39.2-53.2-73.8.4 4.7 1.4 9.5 3 14ZM93 59.6a57.3 57.3 0 0 1 45.2-41.5c1.7-3 3.7-6 6-8.8-32.6 2.7-61 39.1-53.4 74.9-1-8.5 0-17 2.2-24.6Zm17.9-17.2a48.3 48.3 0 0 1 24-15.1c1-2.5 2-5 3.4-7.3-20.8 4-41 29.3-39.9 51.9A53.6 53.6 0 0 1 111 42.4Zm6.9 3.9c4.7-5 10.5-8.5 16.4-10.5.4-2 1-3.9 1.7-5.8a46 46 0 0 0-28.6 34.9c2-7.3 5.7-13.7 10.5-18.6Zm5 4.5c3.3-3.2 7.1-5.7 11.1-7.4l.6-4.5A38.1 38.1 0 0 0 115 62.6c2-4.6 4.6-8.6 7.9-11.8Zm12-.9v-3.5c-4.4 1.5-13 12.9-13 15.8 3.1-5.7 7.7-9.8 13-12.3Zm1 5a42 42 0 0 1-.5-2.6 26.7 26.7 0 0 0-8.5 10.6c2.4-3.6 5.4-6 9-8Z" />
</svg>