<svg xmlns="http://www.w3.org/2000/svg" width="490" height="412" fill="none" viewBox="0 0 490 412">
  <path stroke="#EDFCFC" stroke-miterlimit="10" stroke-width=".5"
    d="m351.8 122.1 1.2.5c-16.8 28.5-7.5 73.3-19.2 110.8-4.1 8.8 13 8.7 8 11.3-.7.3-12.7-5-9.7-8.8l9.2-52.9c-3.8-15.1 5-59.7 10.5-60.9Z" />
  <path stroke="#F4A259" stroke-miterlimit="10" stroke-width=".5"
    d="M131.8 151.5c-.8 1.8-2 8.3-1.3 8.4 1.2-2.6 3.2-5.6 1.3-8.4Zm0 0c20.4 8.6 13.7 23 15.1 29 7.7 33 37 67.3 37.7 71.3 4.5 24.2-28-14.5-34.4-16 2 37.4 10 74.2 8.4 111.7l-2.5 9.3v-50.4c-3.9-2-13.6-.3-15-4.2-.5-30.5.9-61.2-1-91.5 2.9-17.6 9.4-31 .5-47.4-7.3 4-1 16.2-3 30.6-.7 5.9-6 15.3-6.6 18.5-2 11 2.8 33.6 0 47-3.8 11.5-5.2 9.4-.9-2.5v-42c-18.6 28.9-4.2 37.7-2.5 67.1H126c-1-12-3.4-40.5-12.6-31.9 18.4 42.3 21.7 75.8 26 120.9 3 32.7-5.6 18.4 14.6 26.4 5.6 2.3 6.9 8.1 18.9 5.5v-72.2l26.4-.4c3.2-10.3 16.6-9.5 22.2-18-4.3-47-6-94.3-4.6-141.5 2.3 47 .4 93.8 5.4 140.6L237 316c5.2-2 3.7-59.5 4.6-68.4 1.9-18.4 12.4-30.2-.4-64.2 9.8 19.9 13.6 42 13.8 64.2 7.7 14.2 12.9 66 23 68.4 15.7 3.6 11.6-14.5 9.7-29-1.2-9.3-6.3-25.9-6.7-29.3-1.5-13.7 0-61.4-1.7-69.7-1.6-8.2-7.2-.6-9.2-6.7-3.5-10.5 13.3-17.9 5-23.5 2.8-24.5-3.2-73 9.2-86.5-14-10.2-7.7 4.9-9.2 24.3-1.3 17.6-4.3 35.2-4.2 53l-42.3.4c1 43-11.2 11.5-13.8-10.5-1.3-10.9-.7-21.9-.8-32.8-17.9 22-45.5-17.6-57-31.9-2.8-3.4-6.5-3.9-7.6-5.9-.6-1.2 1.2-2.5.9-3.3-.3-.6-7-8.4.4-10.5 2.5-.7 13.9 5.3 15.5 8 2.4 4 .5 7.3 3.8 9.6 4.9-2.2 11.4 7.5 19.2 11.8 23.3 12.7 14.5-8.4 26-16.8 8.7-6.4 28.5-3.2 27.3-13-9.5-2.5-5-11.8-11.8-16.8l1.7-14.3c-17-4-19.7-5 .4-4.6 2.8-1.3-3.4-30.2 32.3-9.7.5 10.8 3.6 19.3 0 30.2-.4 1.1-5.4 6.2-5.9 8.4-2 10.6 8.1 12.4 6.7 22.7-1.3 9.7-25.9 10.9-28.5 3.3-.2-.7-1.3-20.4-5-10-1 3 3.4 56 5 62.1 1.5 5.4 3.2 12 9.7 13 24 3.7 21.5-61.9 19.3-76.4 6.6 12.1 2 75.2-12.6 78.1-28.9 5.7-18-66.3-22.2-75.1-5.6-11.5-1.7 9.2-1.7 10 .2 12.5-2.5 25-2.5 28.6-.1 14.3 2.7 28.5.8 42.8.8 2.2 36.3 2.6 41.1 1.7.6-15.4 3.2-30.9 4.2-46.2 1.2-17.8-3.8-35.9 5.4-34.8 14.2 1.6 35.3 47.6 35.6 50.8 1 10-16.2 44.3-27.6 48.6 2.3 17-6.2 15.6-6.7 16.8-1.5 3.5 3.3 65.6 2.5 75.6 3.2 14 6.7 28.5 8.4 42.8 1 8.4-3.6 13.2 3 29 5.5.6 36.7-1 38.5 0 2 1 1 9 1.2 11.3 3.6 2 5-2.6 7.1-3.8 3.7-2 17.6-7.9 18-11.3-4.2-20-8.4-39.9-14.2-59.6 4-7 15-51.6 16.8-53.8 4.8-6 15.5 3.2 15-6.7-.4-9.7-8.4-5.4-19.7-6.3-3.5 1.6 2.3 29.3-1.2 23.1-2.3-13.1.8-26.3 0-39.4-.7-10.6-7.2-28.7-4.2-49.6 4-28 21.6-11.6 15.5-29.8-10 9.2-16.6-21.9-10.5-27.3-13.9-12 1.2-8.5 2.1-8.8.9-.2 2.3-5.4 5-6.7 6.3-2.8 31.1 2.3 22.3 16.4 19.1 11.6 1.8 7 0 9.2-3.1 3.6-4.8 18.4-2.5 22.7 3.3 6.5 22 3.6 26 8.4 21 45.9 41 32.6 36.8 101.6-10.7 7.2 5.5 16.3-10 21 5.8 10.7 19.4 40.1 14.2 51.2-.6 1.2-22.6 19.3-22.6 15-1-5.5-1.7-20.1-2.5-23.4-3.4-13.6-17.6-26.6-19.7-57.5-15.3 2.2-31-18.6-25.6-8 6.6 12.7 23.1-2.2 0 34.4.2 11.4 5.9 21.8 8.4 32.7 5.2 23.2 2.9 40.5 18 42.4 9.7 1.3 10-2 6.3-27.3-1.5-10.2-6-24.7-10-34.4l1.2-.4a138.7 138.7 0 0 1 9.6 75.1l41.1.9v63c-40.1 1.7-80.9-.1-120.7 2.4l1.3 2.1L490 408c-187.8 3.3-174 3.4-361.9 2l-5-1.6C21 407.6 0 407.1 0 407.1l70.2-.4c-11.3-2.2-.3-18-10.5-26.4-1.7-7.4 13-43.4 15.1-53.8l-7.5-31c1.6-4 5.7 19.8 7.5 21 5 13.2-15 53.8-14.2 61.2 3.3 8.7 19.4 21.4 24.3 8.4 1.8-4.9 6.5-55.3 13.4-73.8-.5-9.2-23.3-46.8-23.5-49.5-.2-4.4 5.5-4.6 8.4-.9 2 2.6 23.9 51.1 24.3 59.6-3.3 29.9 3.3 39.5 6.7 65.5 16.4 11.6-6.4 8.4 23.9 13.8 4-1.5-6.4-76.3-5.5-85.2a554.8 554.8 0 0 0-20-64.6c-23.3 2.6-9.9 5.3-8.5 15.1 1.8 12.5-7 10.3-12.5 5.9-7-5.5-4.8-20.6-24.7-20.6l-1.3 45.8c-1.6 3.3-12.2-1.2-14.3-5-1.8-3.5-2.3-52.8-1.6-59.7 1.3-13.3 23.3-61.8 31-73.8 14.3-22.7 22.7-15.3 28.9-16.4 18.5-3.2-11.6-41 16-48.7 24-6.7 19.7 11 22.5 12.6 1.3.8 10.1-2.8 11.4.4 1.9 5-8 6.3-8.4 6.8-.7 1-3.5 21.2-1.7 23.5-10.2 21.4-13 4.3-17.6 14.7Z" />
  <path stroke="#EDFCFC" stroke-miterlimit="10" stroke-width=".5"
    d="M159.9 403.3c1.5-.1 29.9.9 19.3 6-2 .8-36.4.1-41.5-1.3 22.4.5 21-4.5 22.2-4.7ZM99.5 314.4c9.6 19.7 5 29.1 6.3 39.8.7 6.2 4.3 13.3 5.9 19.3 2 7.6-2.5 13.5 8.4 20.2l-2.1 13c-11.7-1-30.4 2.5-18-3-6.2-4.7-11.6-3-16-10.9 6.5-26 7-53 15.5-78.4ZM366 342c29-.8 58.2 1.8 87.2.9l.4 60L335 405l-1.2-60.8c3.6-3.5 5.9.4 6.3.4 14.3.7 24.6-2.5 26-2.5ZM182.5 342.9l140 1.7 1.2 60c-47.3 3.6-94.7-.5-142-1.3l.8-60.4Z" />
  <path stroke="#EDFCFC" stroke-miterlimit="10" stroke-width=".5"
    d="M236.1 329.5c.3 0 1.4 1.7 1.7 1.7 31-.2 62 0 93 0 .6 8.7 3.4 70.4 1.3 73.4-.5.7-7 .7-7.6 0-1.8-2.6 2.3-60.1-1.2-61.7-47.6.1-95.4-2.4-142.9-.4-1 8.3 1.2 56.9 0 59.6-.6 1.4-3.7 1.7-4.6 1.3-3.2-1.6-1.5-63-2.1-71l62.4-3Z" />
  <path stroke="#EDFCFC" stroke-miterlimit="10" stroke-width=".5"
    d="M182.5 404.2c2.5-1.2 48 2.4 55.3 2.5 31.3.6 62.6.4 93.9 0l.4 2.1c-18.5-1.7-142.8 3.6-149.6.4-1.8-.8-1.8-4.2 0-5ZM343 342.5c.1-.2.2-.4.4-.4M431.8 222s-1.5.3-1.6-.4c-2.8-12.3-3.5-31.4-6.8-44.5a75.4 75.4 0 0 0-20-19.3l11.7 47c1 12.3-2.4 29 .8 32 1.5-28.5-1.3-48.8-10-75.6 24.7 17.1 15.6 30.7 23.4 56.2-2.6 22 1.5 44.2-3 66-10-24.2-19.3-33.4-18.8-62.6-2.1-3.2-5.3-1-11.3-4.6-23-14-17.3-83.2 3-97.8 9.3-6.8 10.2 7.6 13.3 12.6 22.4 34.2 34.7 25.8 32.7 88.1-1.4 3-15-2.6-13.4 3ZM366 212c13.1-3.7 11 9.1 19.7 13.8-1 8.3-6.7 16-5.8 24.4L368 270.3c2.8 18 5.2 36.8 1.3 55-16.9-2-10.8-11.2-13.8-24-2.5-10.4-6.1-20.7-9.2-31 1.8-7.5 14.2-53 15.9-55.4.6-.8 3-2.7 3.8-3Z" />
  <path stroke="#EDFCFC" stroke-miterlimit="10" stroke-width=".5"
    d="M384.5 112.9c13.8 6.2 4.7-5.7-5.5 19.7-7.2 18-12.3 46-5.8 64.7l-15.5 2c-1.6-8.9-11.3-80.5 1.6-80.5 2.9 0 2 8.1 4.2 9.2 2.7 1.3 20.7-1.6 21-15.1ZM378.6 254.8l14.7 64.2 5 7.5c.2 1.3-10.6 7-12.2 8-5.8 4.1 0 8.2-16.7 6.7-2.7-8.3 2.5-15.9 3-21.4 2.6-34-9.4-49.2 6.2-65ZM430.6 224.5c.7 15.9 13.4 31.5 17.1 46.6 6.2 24.7-1.2 20.4-18 35.7-5.3-3.5 2.9-71.9.9-82.3Z" />
  <path stroke="#EDFCFC" stroke-miterlimit="10" stroke-width=".5"
    d="M389.5 117c.7-.1 8.5-.5 8 1.4-20.6 18.1-25.9 85-1.3 99.4 1.7 1 15 3.2 9.2 7.6-4 3-34.7-10.8-28-25.6-15.5-8.9 2.5-79.6 12-82.7h.1ZM357.7 77.6c22 9.4 34.3-.3 23.4 16.8-3.7-1.1 2-3.1 1.3-6.3-.3-1.4-4.2-4.6-5 0-.5 2.6 6.1 16.8 5 29.4-8.1 12.9-23.6 10.6-20.1.9.4-1.3 10-2.3 6.7-14.3-1.6-5.8-6.6 7.4-10.9-4.2-1.5-4.2.3-8.3-3.4-11.8l3-10.5ZM400.4 327c.6-.1 11.9 3 12.2 3.7.2.5-1.1 10-2.1 10.5-4.1-.7-27.2 1.8-27.3-2 2.3-1.7 16.2-12.1 17.2-12.3ZM361 323.6c2.8-.8 11 4 5 17.6l-26.4.5c-1.2-2.3 17-9.6 18-10.5 3.8-3.6 1.1-6.9 3.4-7.6ZM365.2 62.5c5.2-1.3 20.6 2.4 21.4 8.8 1.4 12.2-5-3-25.6-2.9-1.3-1.3 2.1-5.3 4.2-5.9Z" />
  <path stroke="#EDFCFC" stroke-miterlimit="10" stroke-width=".5"
    d="M359.3 70c1.3-.2 23.3 7.7 24.3 8.5 9.9 8-27.2.3-27.2-4.6 0-.3 2.3-3.7 3-3.8ZM431.8 222c1.4.5 3.8-3.9 9.2-.4-2.4 4.3 4.2 15.7-2 17.2-7.4 1.8-6.2-12.5-7.2-16.8ZM387.8 226.2c9.6-3.7-5.6 20-6.7 21.8 0-3.6 5.7-21.4 6.7-21.8ZM364.4 70c6.4.6 13.2 1.7 18 6.4l-18-6.3Z" />
  <path stroke="#EDFCFC" stroke-miterlimit="10" stroke-width=".5"
    d="M386.1 80.2c3-1.7 12 12 1.7 4.1-.8-.6-3.4-3.1-1.7-4.1ZM354.3 68.4c4-.5 2.7 4.6.8 5-2.1.5-4.7-4.5-.8-5ZM379.4 87.7c2.8-.2.7 4.2-.8 3.4-1.2-.7 0-3.3.8-3.4ZM98.7 143.1c7.5-.9 9.3 18 8.8 23.1-.7 7.2-16.4 34-18.4 41.1-4.1 14.7 7.6 30.6 7.5 46.2 14.4 22.3 3 29.2-10.9 7.6a229 229 0 0 1-18.4-46.2c-1.6-14.6 14.7-69.7 31.4-71.8Z" />
  <path stroke="#EDFCFC" stroke-miterlimit="10" stroke-width=".5"
    d="M134.7 170c9.6 25.2-10.8 46-15.5 69.2L97 243.8a109 109 0 0 1-5.4-21.4c.4-4.7 23.7-49 29.7-50 .8 0 9.9 7.5 13.4-2.4ZM73.6 175.9c-11 35.1-9.6 42.7 6.3 76-26.7-6.8-10.6 8.6-16 44.4-5.6 1-10.3-2.3-12.5-7.5-.3-58-5.3-60.4 22.2-113ZM146.5 113.7c7.8.4-2.2 18 1.2 23.1-8 18.7-13.4 3.3-17.6 13.4-.4 1.2-2 23.3-13.4 4.2-7.3-12.3 4-11.3-.8-35.2.7-1.4 29-5.5 30.6-5.5ZM143.1 226.2c9.2 6.7 5.9 21.9 8 40.7 3.2 28.4 12.8 43.9-8.4 35.3l.4-76Z" />
  <path stroke="#EDFCFC" stroke-miterlimit="10" stroke-width=".5"
    d="M146.5 186c7 16.3 13.9 32.5 23.9 47.4-11.5 17.3-15 2.3-27.7-9.3l3.8-38.2ZM130.6 93.6c14.1-1.6 16.5 10.2 16.3 11.3-.3 1.9-29.1 7-30.6 6.3-4.3-2-2.4-15.8 14.3-17.6ZM108 168.3l11.2 3.8c-13.7 13.6-20.2 32.3-28.9 49-5.5-13.9 13.7-35.5 17.6-52.8ZM66 387.4c4 3.5 11 7.8 16 5 5 8 8.1 8 16.3 11.4-24.6 1.6-37 7.6-32.3-16.4ZM141.5 395.8c46.7 11.1-20.5 13.3-22.3 9.6-6.6-13.7 25.1 3 22.3-9.6Z" />
  <path stroke="#EDFCFC" stroke-miterlimit="10" stroke-width=".5"
    d="M112.1 142.3c1.4.4-1.1 16.5 14.7 21.4-7.5 11.5-7.8 5.5-18.4 2.5l-3.4-21.8c.3-1 6.8-2.2 7.1-2.1ZM77.8 260.6c1.6-.5 4.6 2.6 5.4 3.8 1.9 2.8 27 56.1 22.2 62.6-3.9-10.5-7.5-21.3-12.1-31.5-3.4-7.4-19-33.8-15.5-34.9ZM171.6 236.3c1.4.1 17.8 21 10 22.7-4.4 1-13.1-14.2-18.8-14.7-.7-2 8.2-8 8.8-8ZM156.5 106.2c5.1 8.4-31.3 7.3-41.4 11.3-3.4-8 28.4-8 41.4-11.3ZM134.7 154c1 1.1 6.2 4.5 6.3 5.5.1 1.2-12 19.2-18 13-1.3-1.4 9-10.2 11.7-18.5ZM116.3 241.3c4.2.6 3.5 4.8 2.5 6-.7.7-19.7 6-20.5 5.4-.6-.5-2-7.7-.4-8 4.2.7 17.5-3.5 18.4-3.4ZM142.3 160.7c3 3.8 4.7 8.8 3.3 13.5l-3.3-13.5ZM131.8 151.5c2 2.8 0 5.8-1.3 8.4-.6-.1.5-6.6 1.3-8.4ZM286.4 71.8c8.7 10.2 28 40.2 26.4 52.4-.7 5.2-22 51-26.8 32-3.7-14.6 16.8-33.6-4.2-48l9.2 13.5c-.7 11.7-13 33.5-1.6 40.3-9.3 6.3 1.9 15.8-8.8 19.7-16.8 6-7.4-12.7-.5-19.7-.9-2-3.9-4.6-4.1-5.9-.8-3.4 2-65.4 2.5-68.8.7-5.6 3.7-12 8-15.6ZM248.7 207.8c4.4 13.6 4.4 28.1 5.5 42.3 10 21 8.3 46.7 21 66.4l-8 13.8c-42 1.1-27.6.7-25.6-27.3 1.3-18.3-.2-39.8 1.7-57.9.4-4.2 6.7-19.6 5.4-37.4ZM221 65c1.8 0 2.5.5 3 2.1 1.5 5 4.3 89.5 2.1 102-12.8-19.5-10.4-47-11.7-68.8-3 .9-6.5 31.9-46.5-14.7l6.2-12.2c42.9 39 30.7-8.3 47-8.4ZM259.2 40.7c-.1.2-3 .5-3.4 1.3-.5 1.2.5 5.9 3.4-1.3Zm0 0c8.3-11.2-2.3-7.3-3-7.5-3.3-1.2-1.8-11 6.8-5 7.9 5.3-8.4 14.5-4.7 27.2 1.2 3.8 21.6 23.2-17.1 20.6-7.8-13.6 0-14.7.4-15.6 7.6-18.3 2.4-7.8-.4-8-4.1-.1-4.6-14.5-8.8-15.5l1.7-13.4 2-1.2c25 3.5 15.8 8.3 18 12.1 1 1.7 10-5.7 5.1 6.3ZM240.3 3c11.5.4 28 .1 24 16.3-15.2-4-40.8 6.5-24-16.4Z" />
  <path stroke="#EDFCFC" stroke-miterlimit="10" stroke-width=".5"
    d="M222.7 313.5c17.7 1.2 16.8 12.7 13.4 15.1-1.3 1-31 2.2-32.6 1.7-9-2.8 18.4-13 19.2-16.8ZM152.3 55c1-.1 3.6 4.5 10.1 5 6.5 4.5 1 12.3 9.6 13-5.2 22-5.5 4.3-20.9-5.9-.9-3.4-4.3-11.7 1.3-12.1ZM287.3 316c1.7.5 15.8 21.2-18 13 2.5-7.5 9.5-15.3 18-13ZM224.4 18.9c6.7-1.6 40.2 3 42 4.2.5.4.5 2.4.3 3-1 2.5-37.2-6.6-42.3-7.2Z" />
</svg>