<svg xmlns="http://www.w3.org/2000/svg" width="435" height="392" fill="none" viewBox="0 0 435 392">
  <path stroke="#EDFCFC" stroke-miterlimit="10" stroke-width=".5"
    d="M350.1 86.3c2.9-.8 47.6 9.5 15.6 38.6-3.6-4.3 9.4-13-2.3-13.2 1.2-13-17-14.4-17.5-15.7-.9-1.9 3-9.2 4.2-9.7ZM363.4 271v1.8c-3.7-.2-17.8.6-19.4 3.2-.5 15.6-1.6-15.2 2-17-1.5 19 1.5 13 17.4 12Zm-29-95.6a632 632 0 0 1-2.4 83.2c-.7 3.3-7.8 17.8-8.2 6.5 6.4-27.8 1.4-62 10.5-89.7Zm69.2 47.8c4.4-1.2-5.5 6.2 1.5 8-3.7 1.3-11.5 18.6-7.6 6.2.8-2 3.7-5.1 3.8-5.4.1-.5-1.7-7.7 2.3-8.7v-.1Z" />
  <path stroke="#F4A259" stroke-miterlimit="10" stroke-width=".5"
    d="M337.7 131c-3-10.1 8-32 9.5-32.7 3.2-1.3 16.8 4.6 15 17.5 3.5-3.8 4.3 7-2.1 13-6.8 6.5-20.8 8.2-22.6 2.1h.2Z" />
  <path stroke="#EDFCFC" stroke-miterlimit="10" stroke-width=".5"
    d="M360.8 119c1.2 3.5 0 7-2 8.8-6 5.7-20.4 7.6-19.8 2 .4-3.2 2.9-19.3 6.8-25.2 5.3-8.2 13-.8 10.5 6.6m-81.7 152.4c10.1.6 15.5-4.3 20.4-13-12.4-18.2-22.4 12-20.4 12.9v.1Z" />
  <path stroke="#EDFCFC" stroke-miterlimit="10" stroke-width=".5"
    d="M341.3 156.1c-13 7.2-13.5 8.7-19.5 15.9-6.3 6.3-8.6 11.5-8.7 16-.6 18.8-17.7 41.7-27.3 53 3.7 0 9.5 5.8 10 7.8 1.7-1.4 13-10.5 29.1-26.6" />
  <path stroke="#F4A259" stroke-miterlimit="10" stroke-width=".5"
    d="M407 289.8c3.8 2.3-6 20.9-9.7 22-1 .3-12.6-11.2-23.2-8.6-28.6 6.3-90-1.9-91.7 2.6 5.2 18-21 44.9-20.7 63.8-2.4-3.6-18-5.2-18-5.2 12.7-26 15.9-50.1 21-72.7l57.2-21.2c6-2.3 7.8 8.1 15.6 10.5v-.8c-4.3-4.8-10.4-8-7.2-16.1 1.2-3.5 10.7-3.2 14.6-4 5.5-4 17.6 0 18.5-8.4 2-16.6-12-75.4-1.6-100.5 3.5-8.4-2.9 21-2.9 25.7-.4 6.9.8 13.3.8 20.1h1.8c1-15.5 10.2-28.5 3.8-44 4.8-7.4 6.6-6 .9.8 6.8 11.7-1.2 26.8-3.7 46-.1.8-1.8 0-1.8 1 1.6 17 3.3 33.8 3.6 50.9 0 11.4-2.2 28-.5 38.6 8.1.8 16.2-4.2 22-8.5 5.8-4.4 16.4 5.4 19.1-1.2-3.3-18.1-24.1-69.5-25.9-91.8l24 79.9c29.5-28.7-5.2-74.7-12.8-110.3-22.4-26.7-30.1-4.9-50 1l24.7-14.8c-2.6-8-3.5-11.5-5.5-12.6-1.8-1-4.7 5.3-17.7 4-4.9-.4 11.9 2.9 3.6 13.8-1.7 4.3-30 16.7-32 30.8-3.8 27.3-11 31.8-28.1 61 2.7 0 7 2.5 10.2 7.8 9.3-7.8 22.9-17.9 30.1-26.6 10.4 64.6-44 51.3-63 68.5-1 12-8.7 44-19.7 73.8 0 0 16 1.7 19.4 5.7.7-23.3 25.3-42.1 22.1-65l96.6 7.5M174.1 191.5c30.7-40.3 12.7-46 32.4-64.7l41.8 9.5c-13.3 9-8.7 26.2-14.2 40a264 264 0 0 1-18.3 30.6c-2.5 1.9-41.7-15.4-41.7-15.4Z" />
  <path stroke="#EDFCFC" stroke-miterlimit="10" stroke-width=".5"
    d="M266.2 381.8 294 311c164.1 2.9 94.5 36.6 138.5-140.3h2.2s-23.6 146.5-25.3 147c-.3.2-11.2-.2-11.9-.3l-2.6 68.6c22.4 1.7 37 3.6 37.9 5.8" />
  <path stroke="#F4A259" stroke-miterlimit="10" stroke-width=".5"
    d="M1 381.6c86.8-12 306.3 4 389.3 4.4 0 0 4.4-58.2 1.9-66.4-9.3-2-88.5-4.3-96.9-6.6 0 0-2.9 13-11.6 29.4a160.7 160.7 0 0 0-12.8 37.4s38.4 2.8 64 2.8c25.6-.1 51.5 1.8 51.5 1.8m-214-242.5-1 1.9c1.6.2 3.9-.8 6.5 1.4-.5.6-2 4.3-2 4.5 3 21.5-.8-9.7-2.2 9.6-12.2-.3-22.4-7.6-34.3-5a66.4 66.4 0 0 1-8.7-17.9c-3.3 4.2 0 40.9 0 46.4 6.2 2.1 4.8 15.8 7 16 6.6 1-4.2-34.5-1.5-43.4" />
  <path stroke="#F4A259" stroke-miterlimit="10" stroke-width=".5"
    d="M131.2 365c2.3 10.7-1 11-.5 3.3.2-1.3-.3-3.2.6-3.2h-.1Zm-18-298.5c.7 1.4-8.2 10-9.7 10-5-6-7-18.4-17-14.5v-2c1.4-.6 4 1 5.5-1.4 1.6-23-4.7-24-4.7-25.7.3-2.5 6 2 6.5-.8 1-5.2-17.3-10.5 10.6-17.9 9.8 14.4 5.8-1.4-2.7-1-7.3.5-19.6 7.5-11.6 16.2-10.1 2.5 5.5 14.8-.4 15-1 0-12-12-13.4-15C67.1 9.2 84.2 6.8 99 3.9c1.5-.2 14.9-10.5 9.7 10.6 12.6 24.2 18.5 51.7-14.8 34.9 12.5 10.9 16.8-1.3 19.4 17Z" />
  <path stroke="#F4A259" stroke-miterlimit="10" stroke-width=".5"
    d="M135.5 94.5c0 2-.7 19.3-1 20.3-4 12.8 5.8-35-12.5-48.2 8.6 22.8 6.7 35.7 10 57.9l-1.9 7.5c.8-11.7-2.8-67.4-15-68V63c6.7-1.7 17.6 13 24 18.8l13 53.3c2.2 3.4 17.7 2.4 22.2 3.3l-1 1.9c-4.4-.9-40-3.2-23.5-3.8 2-1.6-9.2-46.9-11.6-51.8m72.2 295c-8.2-1.4-31.5-3.1-34.8-4.4-2.8-1-3.4-7.8-16.7-6.5-1-.4-2.1-4.5-2.3-5.5-10.1-.6-17.6-2.1-25.9.4l-.8-80.8-21.7-60.2c4 20.2 13.7 38.9 19.8 58.4l1 92.7-48-.8c1.9-50.7 15.3-99.3 24.8-148.8 3.7-9.4 26-26 21.7-27.1L105 220.3c-10.1 51.1-23.2 102.2-26.3 154H59.3c-1.2-.9 5.8-91 4-144.8 37.6-1.3-10.8-3.9-21.7-5l-1.4-2.3c9.5-24.5 19.5-49 27.5-74 28.5-4.3-33.9 1.7-38.5-2.3-7.4-21.6 24.3-53 30.4-73.8C53.5 78.7 47 96 40.3 103.8c-4.6 13.2-21 33.3-11.5 44.6l36.4.4C63 164 38.3 219.3 38.5 223.2c.1 5.5 17.9 11.5 23.1 11-1.9 46-4.2 140.2-5 141l-45.8 2.3M114.7 40.9c3.9 13.5 1.7 12.6-10.2 10.9v-1.7c19.3 4.1 5.1-6.8 10.2-9.2Z" />
  <path stroke="#EDFCFC" stroke-miterlimit="10" stroke-width=".5"
    d="M42.7 225.5c24.2 1.3 23.7 8.5 13.8 7.2-1.6 0-11.8-5.2-13.8-7.2Zm65.9-146c-7.5 2.5 3.9-15.6 6.5-4.2 3.3 14 7.5 73 13 97.4-40 2.1-23.1 5.3-27.7 12-1 1.4-6.7-.5-8.4.8-1.8 1.4-8.3 38.7-10.6 43.6-4-13.7 26.3-95.4 19.8-127.2-2.3-24.5-21-58.4 4.2-20.6 4.4.6 3.2-1.9 3.2-1.9Zm48 283.7c-5 .6-7-.8-7.4-.8-9.5-3.5 5.4-.8 6.5-2.3 2.2-3.2.3-68.7 2.8-78.2-21.7-99.9-23.7-119.3.9-5.5 2 21-3.8 79.2-2.8 86.8Z" />
  <path stroke="#EDFCFC" stroke-miterlimit="10" stroke-width=".5"
    d="M194.5 152.7c-3.7-3.6-8.3-6-13.3-7-10 11.3 1.4 15.9 10.1 17m26 217.2c4-1.4 6.6-4.6 10.2-6.6 6.5-2.7 13 0 15.4-8.2m19.4 5.6-1.3 11.2M122 181.3c16-1.7-2.3 5.2-19.8 3.3 9 0 17.7-3 19.8-3.3Zm-29-73c3.7 12 0 22 8.2 21.6 0 1.2-.8 1-.8 1-11-5.3-6.3 25.8-10.2 22.5l3.6-22.2-7.3-1.7C106 133.3 83 92.4 82.7 90c-.1-1.4 3.8-25.9.6-27l-20.8 7.8c15.1 36-.8.5-3 1.4 2.1-6.5 20.8-8.6 27-12v2c-.8 6.2 1.4 32 6.5 46.3Zm-26.3-6.9c2.7 4.4-5.1 20.6-4.2 22.5 20 5.2-20.6 1-2.4.6 3-7.2 4.4-15.4 6.6-23Zm16 46c2.9 3.7.4 8.2 1.9 13.3 11.1 9 1.7 7-1.7-1-1-2 .4-11.8 0-12.3h-.2Z" />
  <path stroke="#EDFCFC" stroke-miterlimit="10" stroke-width=".5"
    d="M175.6 191c27.4-25.5 11.8-43.2 31.3-62.4l36.6 8.7c-7.8 3.9-9.7 24.7-10 30.2-1.7 10-12 25.8-20.2 38.1a103 103 0 0 0-34.7-13m66 174.4 14.5 3.6s1.5 8.3 0 9.2c-1.8 1-17.6-1.5-23.8-1-7 .4-11.3 0-11.3 0s8.1-6.7 10.1-5.8c2 .9 10-1.1 10.6-5.9v-.1Z" />
</svg>