<svg width="436" height="369" viewBox="0 0 436 369" fill="none" xmlns="http://www.w3.org/2000/svg">
  <g clip-path="url(#a)" stroke-width=".5" stroke-miterlimit="10">
    <path
      d="m404.27 366.36-51.69-.4c0-1.32 8.6 1.59 9.25-4.23.4-2.91-12.55-49.32-11.36-58.17v-.14c6.6 10.18 34.37 31.07 36.62 35.7 5.81 12.3-14.55 45.61 13.61 9.78 0 0 6.08-8.32 10.18-7.8 4.9-4.1-9.12-15.07-12.95-14.54-6.22-11.1-42.97-45.74-42.7-55.4 0-5.55 19.56-28.42 15.86-47.86-6.21-8.59-.93.27-.93 1.72 1.99 18.25-18.24 47.47-28.42 62.93.66 6.75 6.21 11.9 6.74 13.36.66 2.38 9.52 45.48 9.26 47.86-.27 1.06.26 1.85-1.32 2.9-3.05-.39-10.85.54-11.77 0-3.04-1.45-17.05-61.6-17.19-64.9-1.19-16.93 14.28-36.63 15.07-55.54-1.58-2.77-7.27 29.35-10.44 28.96-4.9-12.43-11.77-22.35-9.65-36.5 8.33.93 42.17 0 46.53-6.2 3.04-4.24-1.19-13.62.4-18.12.8-2.25 24.06-12.16 21.81-32.66-.4-3.96-14.54-43.1-20.49-47.46-24.19-17.32-22.34 23.67-36.09 26.05-8.06 1.32-6.6-7.27-3.83-12.17 4.89-8.46 23.66-12.3 13.48-30.14 6.22-8.07 2.25-15.73 3.3-18.51.54-1.32 5.7-2.64 5.82-4.23.4-2.12-4.75-3.7-5.81-5.03-.8-1.19-2.78-14.14-23-9.78-5.82 1.32-12.83 6.48-10.58 13.22l34.9-1.32c9.91 7.54-13.75-.53-35.3 4.23 1.32-4.5-6.21 1.59-6.21 1.98-.53 2.91 5.02 1.59 6.6 4.23.67 1.06 2.26 18.65 9.66 23.14 6.08 3.57 20.1-7.93 21.42-5.55 4.23 16.92-10.98 18.5-15.07 26.04-8.86 16.13 5.28 21.82 15.86 4.23 5.68-9.25 4.36-24.32 20.62-17.18 10.18 4.36 26.44 49.97 23 59.1-3.83 10.84-26.44 22.2-33.97 30.67-7.93.26 1.59-.53-.4-11.37l11.77-6.74c1.98-12.7 3.57-26.31.92-16.66-1.05 3.17-1.32 14.4-2.64 16.66-2.12 3.56-10.31.79-12.96 8.85-24.32-2.5-2.24 25 14.28.8 12.96 28.03-26.04 21.42-42.83 22.74-4.9-1.99-4.23-39.53-5.55-45.88-6.08-7.8-7.01-44.16-3.97-50.24 5.02-10.7 13.22 6.35 15.87-2.51 1.98-6.75-3.31-16.8-7.28-2.91-17.58-2.78-11.37 46.54-5.28 58.17l3.3 55.53 10.84 26.84c.53 4.36-4.23 10.05-5.02 14.28-2.91 15.6 12.95 60.02 16.79 78a21.16 21.16 0 0 1-14.68 9.65l-50.37-1.71c-6.21-8.07-24.06-7.4-25.51-12.17 7.14-61.48-2.25-109.47-11.37-168.96 1.98-.14 8.72.4 9.65-1.33.53-1.05.13-22.87-2.9-23.93-5.83-1.98-11.11 8.33-6.35-6.21 5.15-16.13 26.83-27.5 2.5-42.04-.92-3.18 3.58-9.65 2.52-19.3-.53-5.3-12.3-28.03-4.1-20.1a470.8 470.8 0 0 1 34.37 44.42c2.78 14.55-19.96 32.13-26.04 44.56 8.46-9.26 29.48-31.34 27.63-43.63-.66-4.9-32.26-44.82-37.28-48.26-12.82-8.99-31.2-4.76-33.58-5.02-.66-.27-11.9-4.9-12.16-5.56-5.82-13.75 21.41 3.3 24.32-4.1 0-11.37 1.99-22.47-.79-33.58.53-1.58 15.86 4.76 15.86-4.23.27-5.15-20.36-5.42-22.2-11.37-14.28-5.02-26.97 5.3-27.24 19.83-.13 14.41 20.23-19.17 28.95-15.6 1.59.66 2.78 6.08 2.12 7.14-.53.8-7.54.8-8.86 1.32-29.48 11.24-14.01 26.58-12.95 33.06 2.77 16.92-6.22-2.65-34.38 26.84-5.42 5.68-27.23 33.45-28.55 39.53-2.91 11.76 15.73 16.4 2.9 24.72-3.56-1.98-11.76 2.78-17.58 5.02-5.29 1.99-10.3-3.17-12.56 13.49l-15.6-1.32 4.63-15.47 10.97 5.82.4-1.33-11.77-6.6c-.92-5.56-7-24.33-12.3-25.66-14.93-3.96-8.19 13.62-13.21 25.13-3.3 1.32-26.97-53.55-46.27 2.64-7.93-32.52 16.26-22.6 15.6-40.72-.13-1.85-3.57-10.05-2.51-15.07.26-1.72 14.4-22.22 16.26-23.14 6.74-3.44 15.2 1.72 18.9 7.93-9.25 4.23-6.21 10.31-8.33 14.28-3.04 5.42-9.91 12.7-10.04 13.49-4.76 17.32 5.68 24.45 16.26 34.77 2.38-.8 1.72-24.2 2.11-25.52.8-2.11 4.5-1.98 5.03-3.44 1.85-4.36 2.9-35.16-12.17-42.3-26.17-12.56-26.7 9.52-28.02 12.16-4.37 8.06-12.17 4.36-4.23 29.35-30.67 21.29-9.26 35.17-8.46 41.12 1.71 9.78-16.27 45.48 12.16 46.54L47.2 202.4c-.27.67-2.65-.13-3.3 1.6-11.11 24.98 26.43 65.7 25.9 71.38-10.97 17.85-24.72 33.85-37.68 50.38-3.17 3.83-8.59 7-9.25 8.33-2.9 6.08 1.32 14.27 7.93 9.65 1.46.4 3.7 15.73 19.3 17.58 26.18 3.04-.4-12.82-2.11-15.47-.66-1.19-4.23-11.9-4.1-12.69.27-2.25 29.75-28.16 33.05-33.05 4.63.66-7.53 62.4-14.28 67.03L0 368.47l71.12.4c7.4-5.56 23.27 2.9 29.88-1.59l-11.9-.4c7.14-.4 13.1-1.71 11.77.4v-.13c1.59-1.06 1.72-3.83 2.9-4.1.67-.26 12.44 1.59 14.29 1.59 5.55-.13 36.88-2.51 38.6-1.59 2.38 1.06-4.23 6.35 22.34 3.7-.8-12.3 4.23-17.71 6.61-26.84 10.84-42.7 15.2-86.86 21.42-130.49 6.21 24.6 17.45 48.4 22.2 73.51 5.43 28.43 3.31 64.65 4.24 67.96 1.45 6.08 5.95-.93 6.21 12.95 20.5 1.33 69.01-1.71 82.23 0 3.83.53 6.88 2.38 10.05 4.24L436 366.75l-31.73-.4Z"
      stroke="#EDFCFC" />
    <path
      d="M353.9 271.56c0 10.71 43.1 52.36 43.23 55.8 0 1.32-7.53 8.85-8.86 10.57-5.94-6.48-37.01-33.18-39-37.42-.79-1.71-.4-10.57-5.02-14.27l9.65-14.55v-.13ZM330.5 81.18c5.03-.27 9.92.53 14.94.8v1.7l-5.42 1.2c11.63-3.44 8.33 18.9-5.42 23.8-21.28 7.93-13.88-22.21-24.85-24.6 6.74-.4 14.01-2.64 20.62-2.9h.13Zm69.54 246.7 10.58 11.24c-12.7-.4-9.65 13.62-24.06 23.93-2.78-1.98 7.53-13.22 2.11-23.8l11.37-11.5v.13ZM327.07 66.9c7.93-1.2 16.52.26 19.7 8.72l-31.47 2.12c-1.72-6.08 6.61-10.18 11.77-10.84ZM354.7 353c4.36-2.25 6.87 9.65 4.23 10.84-29.88.4-25.12 2.78-17.59-4.1 5.03-4.62.14-5.94 13.36-6.74ZM191.96 56.85c17.58-3.97 12.82 45.61 31.86 38.47 7.66-2.77-4.37-44.55 14.67-29.74-.53 6.21 6.08 16.66 6.74 21.02 1.33 9.25-4.89 26.97-5.81 40.32-.66 9 2.24 30.8-1.72 36.89-2.78 4.23-17.72 5.82 0 14.28-78.8 3.83-73.24 2.64 1.72 2.51 10.18 55.53 19.17 111.85 11.76 168.57.93 6.34 13.75 6.6 18.77 8.86 19.84 8.86-23.13 1.85-26.44-5.42-1.58-3.84 2.91-39-8.32-81.45-2.12-7.8-22.48-62.8-26.44-64.12-3.97-1.45-3.97 3.7-4.63 6.22-1.06 5.02-3.97 46.27-7.54 67.16-1.85 11.24-8.99 46.54-11.76 57.11-2.38 9.26-8.2 17.59-6.61 27.64-9.79 1.32-24.86 1.58-17.19-2.91 1.32-.8 4.63 3.17 13.75-10.58.4-1.32-2.64-1.59-2.64-2.51 10.44-62.54 21.15-78.27 9.25-156.01-1.06-3.04-2.64-16.4-4.1-12.56 5.55 27.76 9.92 67.7 7.54 95.59-.4 5.55-12.3 71.92-13.49 75.49-3.17 9.92-10.18 10.7-10.84 8.46 9.78-30.67 9.65-62.67 20.1-93.2 1.32-22.75-5.69-72.2-4.1-88.06 0-.4 2.25-.13.8-6.61 11.5-2.12-1.46-13.62-5.03-20.23a263.12 263.12 0 0 1-15.87-35.3l14.55-10.44c4.5 57.77 6.08 56.05 2.11-1.33 20.23-16.12 22.08-18.9 15.87-46.14a13.2 13.2 0 0 1 3.04-1.98Z"
      stroke="#F4A259" />
    <path
      d="M185.21 57.64c3.57.27 3.97 4.9 4.63 7.94 4.1 20.36-1.45 24.59-15.47 36.49-.26.26-.53-2.38-1.72-1.72-1.05.66.4 4.63-18.1 16.4-.14 5.94 16.91 33.3 16.78 35.3 0 1.31-8.46 6.6-9.65 6.2a291.55 291.55 0 0 1-28.95-39.79c-1.59-10.31 41.38-61.87 52.48-60.82Zm25.25-42.83c2.12-.27 4.5.13 6.61 0 3.44 32.26 9.26 41.51-20.09 32.79-3.44-1.86-6.61-16.93-5.42-20.63.93-3.04 15.47-11.9 18.9-12.16Zm-7.66 44.55c5.81 3.84 24.59-.4 25.64 2.91-7.93 15.6 2.65 37.02-10.57 31.47-8.86-3.97-10.71-26.44-15.07-34.38Zm41.11 49.45c19.3 13.48 6.61 18.5-2.51 39.4-3.04.13.53-39.27 2.64-39.4h-.13Zm-72.05 45.35 9.65 13.75c-3.04 4.76-9.65-5.03-7.93 7.93-7.4-3.97-16.92 5.95-14.8-3.7.26-.8 7.66-6.48 4.22-11.77l8.86-6.21ZM201.21 1.32c9.52-1.45 17.58 5.16 9.25 2.65-8.32 5.55-15.46 12.95-22.73 20.1-1.99 0 1.32-20.76 13.48-22.75Zm43.63 155.35c6.87-1.06 3.83 11.9 3.7 15.47 0 .53 3.97 6.21-.4 7.93-11.9 4.9-6.21-10.7-9.65-15.47 0-1.19 5.29-7.93 6.35-7.93ZM218 7.27c.8-.53 12.82 3.04 13.35 3.3 5.69 3.7-3.96 9.13-10.84 4.24-3.04-2.12-3.17-7.27-2.64-7.54h.13Zm23.4 347.45c1.45-.8 7.27 5.69 22.34 7-3.7.4-21.02 1.07-22.34.54-2.25-1.06-1.06-7.14 0-7.54Z"
      stroke="#F4A259" />
    <path
      d="M237.3 165.92c1.46.53 1.72 10.19.8 10.85-14.94-5.16-1.72-11.24-.8-10.98v.13ZM40.98 115.55c-.66 24.06-10.57 47.2-6.34 71.66-13.36 3.7-15.6-11.37-15.07-21.81.66-14.81 5.02-44.96 21.28-49.85h.13Zm-8.46 212.33c9.92-2.64 11.1 13.1 13.88 17.98 2.65 4.63 28.16 18.38 2.12 13.88-12.7-2.24-15.07-17.18-17.72-17.71-15.33 4.36-3.96-12.82 1.72-14.15ZM46.01 57.64c1.85-.26 4.76 1.06 7 1.33-6.6.92-19.96 23.53-19.96 28.29 12.16 31.73-18.77 14.67-13.88 48.26-9.39-18.91.13-21.16 12.16-33.06-6.34-26.44-1.32-17.98 4.23-28.55 1.99-3.97 2.38-15.34 10.58-16.4l-.13.13ZM68.6 71c1.06 0 2.38 1.32 2.91 2.11 2.65 4.23 10.58 47.33-15.86 21.82 7.14-8.73 9.25-23.54 12.95-23.8V71Z"
      stroke="#EDFCFC" />
    <path
      d="M54.34 96.25 69 104.97l-2.12 23.94-14.54-15.47c2.25-8.86-2.38-14.41 1.98-17.2Zm16 258.47c14.53 0 16.91 6.21 31.45 8.73 0 2.25-26.7 1.98-29.08 2.11-.8 0-2.64 3.44-7.53 1.72l5.15-12.56Zm60.4-215.77c7.15 0-1.98 11.37-13.48 16 1.85-15.86 0-1.32-4.23.8-6.6 3.56-7.93-1.86-5.42-7.15 7.4-3.96 15.07-7.13 23-9.65h.14Zm-94.91 41.12c1.45 2.91 17.05 13.62 17.18 14.8 0 .4-2.5 7.94-2.9 7.94-1.33-.26-20.23-15.86-14.28-22.74Z"
      stroke="#EDFCFC" />
    <path d="M55.13 195.28c3.44-.67 13.61 8.98 8.46 11.76-7.8 3.97-16.4-10.57-8.46-11.9v.14Z" stroke="#EDFCFC" />
    <path
      d="M76.15 113.04c9.52-1.98 16.26 23.14 16.4 24.72 0 2.65-5.43 15.87-5.96 20.1-1.85 18.11 8.2 28.95 10.18 46.27-33.97 2.65-41.64 3.7-1.32 1.99 5.82 2.24 1.32 57.64-2.12 65.84 4.9 8.6-6.6 81.04-10.57 82.76-.8.27-11.64-.8-12.03-1.32 3.96-17.98 9.25-36.23 7.93-55-2.25-1.85-32.39 29.88-35.17 33.58-3.17-2.9-6.08-5.82-10.57-6.21 13.75-16.13 28.02-32 38.6-50.38.4-3.96-25.78-37.01-27.76-53.67-3.17-28.43 10.05-14.28 11.5-13.88 12.7 3.04 13.48-5.56 6.61-10.85-1.59-1.32-8.2-3.17-11.63-5.95-17.85-14.01-17.98-16.79-12.7-39.4a53 53 0 0 1 13.1 29.75c.52 4.9-2.25 8.86.79 5.95.4-12.56-3.57-28.56-13.49-37.02 6.22-42.04 1.59-44.15 29.88-11.23 5.95-4.9.8-24.6 8.33-26.05Z"
      stroke="#F4A259" />
    <path d="M82.89 235.47c.53 0 4.23 10.18 4.63 11.37 11.63 38.34 1.32 24.85-4.63-11.37Z" stroke="#EDFCFC" />
  </g>
  <defs>
    <clipPath id="a">
      <path fill="#fff" d="M0 0h436v369H0z" />
    </clipPath>
  </defs>
</svg>