<svg xmlns="http://www.w3.org/2000/svg" width="490" height="428" fill="none" viewBox="0 0 490 428">
  <path stroke="#EDFCFC" stroke-miterlimit="10" stroke-width=".5"
    d="m157.3 85.9 21.4 38.5c.5 4.4-18.6 50.8-17 63 10.3-7.6 34.8 3.1 62.4-4.4 1 .2-.4 1.8-1 2-11.8 3.8-41.4 3.2-55 0-9.4 9.5-11.1 17.2-7.3-6.5 1.6-10.8 16.7-50.7 15.9-55.1-7-11-16.5-24.6-19.4-37.4V86Zm32.9-84c4.7-.4 14 5 14.4 10.5-9-18.4-45.1 2-36.3 18.6 5.6-8.4 23-11.8 32.9-16 5.1 2.1-35.3 11.1-31.4 18.5 0 .3 6 1.4 5.8 3-.3 3.4-18.3-5.7-8-21.1C169 13.6 188.4 2 190.3 2ZM206.2 274l-7.5 51.5c25.4-24-6 27.8 27.5 23.5 14.2 11.4-.6 5.6-25 7-15.7-25 2-55 5-82ZM103.3 63c3.8 1 28.5 61 20.6 75.4 10.3 4.9 25 7.8 16.3 14.6a223 223 0 0 1-39 7c-16.4-.8-9.5-20.6-10.4-32.5-2.6-5.1-3.2 29.5 1.5 32.4 4.8 1.3 10 1.3 15 1 9.5-.4 48.5-8.4 18-1.9-9.8 22.1 7 44.2-30 39-5.4-.7-16.5-8.4-24.5-5.6-1.1-1.7 5.2-9.7 7-19 3.6-18 5.8-83.8 9-95 .4-1.2 2.7-5.6 3.4-5.5l3 12c2-.4-1.5-11.8-.5-14.5a73 73 0 0 1 10.6-7.5Zm42 117c5 11.8 22 67.8 21.4 75.4L139.2 340c-4.7-3.2-10.5-1.4-10.9-1.9-3.4-2.5 6.6-63.3 9.4-70.6 1-2.3 7-7.4 7-8 1.7-6-2.9-10.6-1.4-1.5-3.5-4.7-12-12.8-12.5-18.5-.4-4.4 11.5-59.8 14.4-59.5v.2Z" />
  <path stroke="#F4A259" stroke-miterlimit="10" stroke-width=".5"
    d="M131.2 244.8c16.8 21.7 7.4 11.4 2.5 29.6-3.8 15-5.2 48.4-10 66.1 14.9 1.5 28.9 5 43.6 7.4 3.5 2.6-39.9 5.6-42 5.1-.8-.1-8.5-8.8-8.5-9.5l14.4-98.5v-.2Zm-4.8-232C144 9.4 135.9 57 132.3 58c-25.3-7.4-15.6-13.2-17.7-16.5-.4-.6-11.9-.7-3.5-10.4 12.4 3.4 8-16.5 15.3-18.1ZM110.2 58c3.4-2 9.4 22 21 16l1.5 2.6c-.7 7.2 10.9 66.6 7.5 67.5-27-9.6-7.8-9.6-11.5-39.6-.4-3.7-12.6-36.8-15-40.9-1-2-5.5-1.8-3.5-5.6Z" />
  <path stroke="#EDFCFC" stroke-miterlimit="10" stroke-width=".5"
    d="M122.3 2c5.4-.3 10.4 8.8 10.4 9.4.2 3.7-11.7-8.3-15 16-9.2-.8-14.7 18.6-18 6 .5-7.2 1.8-14.2 4-21 3-5 17.6-10.4 18.6-10.4Zm-14 58.8c4.1.3 18.8 39.8 19.4 45.7 3 25.4-6.7-8-11.9-21-3-7.4-14.4-24.8-7.5-24.5v-.2ZM327 121c18 17-9.5 23.6 1.5 57.6 1 3.2 5.9 10.6 8 14-28.4 4-32.4 13.6-38-24 4.1 0 11.6-2.4 14.5-1.5 4.2 1.2 21.8 31.6 2.5-1.5 6.2-14.1 8.1-29.6 11.5-44.6ZM289 343c13.3-4.7 19.2 11.3 14 14-5.8 3-30-.9-38.5-.4-.8-4.5 8.1-3.7 18.6-7.6 3.6-1.4 5.6-5.8 5.8-6h.2Zm10.4-321.2c.7 0 4.2 7.1 4.8 7.4 9.9 3 4.4 8.5-.7 14.3 7 5.3-9.3 10.3-14 10.4-11.7.3-7.3-22.5-6.9-30.4 1.2-2.1 14.1-2 16.8-1.7Z" />
  <path stroke="#EDFCFC" stroke-miterlimit="10" stroke-width=".5"
    d="M309 49c3.5 14.2-13.4 47.5-19.5 67.5-4.4 14.7-7.6 29.6-11.4 44.4-3.7 1-3.9-70.5-3.6-75.5 1.5-16.8 12.5-26.2-11.9-8-2.5 5-13.8 36.9-16.4 37.5-15.5 4.4-25.3-34-33.5-42.4-8.4-8.9.6 7.6 1 10 2.3 12-11.2-18.6-7.5-21.5 4.1 0 6.8 3.8 9.6 6.5 5 5.1 29.6 39 14.8 22.8-5.1-5.6-13.2-19.6-18-24-13.7-13.5 2.9 7 4 9 5.5 8.2 17 40.7 28.5 37.5 3.6-1 14-34.6 17.5-38.6 1.8-2 15.2-8 19.4-12.3a127.2 127.2 0 0 0-5 61c4.2-16.3 6.8-52.3 8.6-60.6.6-2.3 2.6-1.9 2.9-6.5 0-.1 1.5.3 1-2 4.9 0 21-5.2 14.1-10.5" />
  <path stroke="#F4A259" stroke-miterlimit="10" stroke-width=".5"
    d="m303 69-25 85.9c-3.2-28.6 6-56.2 8.6-84.5 6.5 12.2 8 7.2 16.5-1.5Z" />
  <path stroke="#EDFCFC" stroke-miterlimit="10" stroke-width=".5"
    d="M306 49c8 10.2-15.7 39.4-18.4 18.5-1.6-12.5 12.5-11 18.4-18.6Zm4.1-11.1c.3.6 1.5 1.3 1.5 1.5.1 2.5-9.9 11.1-1.5-1.5Zm-122.9 181c1.8 34.6-6.1 69.2-6 104 .8-34.5-1.9-70.1 5.9-104h.1Z" />
  <path stroke="#F4A259" stroke-miterlimit="10" stroke-width=".5"
    d="M282.5 9.5c3.2 3.5 49.2-4.7 30.1 29.9-5.1-2.7 3.5-16-7.3-11.5-4.5-12.8-22-6.8-22.8-7.7-1.6-1.4-.9-11.6 0-10.7ZM223.7 109c-2-.8-2.8 3.2-3 4.4-6.7 31 6.5 28.8 33.4 36.5 13.2-35.8 1.8-8.5-6-10-2-.3-34.1-24-24.6-31 2.5 4.5-.3 6.6 0 7.4.6 1.8 23.9 22.6 27.5 21.7 3.1-3 9.6-11.2 10.6-14.6.6-2.2 1.3-21.3 4-17 3 26.4 11.3 60.6-8 82l1.5 1.5c20.1 0 11.3-14.7 20.9-26.9 4.4-1.8 28.6 7 34.5 1.5 2.8-2.7 9.6-37.3 11-44.2L317 101c10.5 8.2 10.7 21.8 19.4 31.6-5.1 11.8-11.3 19-5.4 32.4l32.3-28.4c-1.6-15.5-14-31.6-18.8-43.1-1.8-3.8-.6-11-5.6-15.5-4.8.3 6.2 17.1 2 15-8.3-18.4-1.1-16.9-23-26.9 9.4 22.5-10.3 7.4-.4 16.5-15.6 22-1.8 1.2-2.1 0-.4-2-7-2.2-5.9-4.1 19.4.1 1.2-14.2 5.5-16.5 9 6.3 19.8 9.3 27.4 17.6 3.1 20.6 27.2 48 21 60-1 1.7-26.5 24.5-28.5 25.4-10.2 5-3.6-5.3-8.5-4.4-1.7 9.1 13.2 33.6 11.5 34.4-16-3-29.1 13.9-37.5-6.4-5.9-15 4.4-27-21.9-20-2.3 20.6-9.8 40.7-9 62l19 105c.2 4.3 15.4 6 16.9 3-1.8-13-4.7-78.4-6.9-83-.7-1.5-17.3-7.7-7.5-10.5 14.7-4.4 13.5 85 15.4 96.5l-2.9 3c4.1 17 4.7 4.4 16.9 1L305 359c16.7-2.3 35.2 5.8 27.9-18l-14.4 1.5c-6.8-41.2-14.6-83.1-24-124-3.5-15-11.7-31.3-8.5-38.5 12.8 51.8 24.5 104 33.4 156.6.7 1.5 16 3.6 17 1-.4-29-10.7-119.9-10-136 0-1.7-.1-2.4 1.5-3.6 1.5 39 9 90.4 9.5 127.6 0 6.5-3.2 23.3-2 26 2.2 4.8 75-1.1 103.3 11.5l3 57 48.2.4-49.1 1.5c-3.7-1.5.8-53.3-4-54.9a191 191 0 0 1-42 5c-115.4 4-230.9 1.9-346-6.5l-1 52c.3.6 3 2.2 3.5 2.5 20.4 7.8 334 6.8 382.4-1v2c-119.5 8.9-239.7 6.4-359.5 3a134 134 0 0 1-27.3-4.4L0 420l45.4-1 3-56c98.9 8.3 199.1 11.5 298.6 9 11-.3 85.7-2.6 89.8-5.9v-2c-31.6-9.6-65.1-8.3-97.7-10-5.2 8.8-70.4 6.1-74 5-10-3.6 6.5-10.2 12.5-9.6-5.9-2.5-48.5-2.8-49 0 0 .6 7.3 5.4 5.5 8.5-60.5.5-120.8-1.6-181.2 1.5 7.7-3.8 67.6-2.7 68.8-5.9-3-5.3-11.5-20.6-18-10.1-1 1.6-5.5 24-1 0-1.3-1-3.8-4.5-4-5-1.4-19.5.5-59.4 0-84 0-.5 3-6.3 3-8-4.4-14.8-4.4-30.7-5.9-46.1-18.2-10.6-28.3-2.2-27-10 .4-2.2 6.2-9.7 7-13 3.9-15.3 5.3-80 11-104 6.8-7.7 17.3-10 23.6-17.6 23.6 31.5 20.6 10 18.8 10-1 0 .1 4.5-.9 5-.4-19.8-16.7-9.5-15.6-27.3-17.6-11.4 1.5 8.5-5.4 4.4-3.7-2-3.8-10.3-8.5-13.5-5.3-25 23.5-44 35-27 7.3 11 6.9 55-3.6 51.5 6.8 31.8 9.6 65.5 15 98 4.4 2 1.8-33.8 1.5-37.5-1.5-16.2-7-33.4-7-50-10.2-1.5-4.5-4.4-1.4-3.5 3 1 10.3 19.8 18.4.5-8.8-3.2 11.7-29.1 13.5-29.4 3-.7 12 7 .9 2-1.2.2-12.7 15.5-13.4 17.4-3.7 9.5 3.5 3.9-4 20 13 2.8 26.5 16.2 28.4 16.5 22 4.5-9.7-25.4-10.4-29.4 1.6-15.8 5.7-20 2-2 34.3 27.5 12.5-3.9 22.4-5.7 2.9-.4 15.1 15.5 11.4-27.5 0-1.9-4.5-9.3-1.4-9.4 2.9.9 4.2 28.6 3.5 32.4-3.4 21.2-19.4-8.1-14 22-8 4-14.7-6.7-22-9 15.7 15.8 29.2 38 3.5 27.6-41.7-33.4-17.3 3.7-24 35-11-12.6-1.3 6-3.5 24.5-1.2 10.1-7.6 12-4 25-9.5-21.8 9-22.4-19.4-15.5-4.4 3-2 31.8-7.4 36.5-4.5 3.7-21.5 1.2-22 3 3.3 13.8.8 41.2 8.9 47 .4 2.4-4.3 3-5 5-3.3 9.7.7 70.3 0 87 5.6 2.9 11.1-4.6 15.6-.5 8.3-37.2 8.8-79 15.4-116.4 1-6 9.1-45.7 14.4-44.6 4 .8 19.8 67.7 22.5 76.5l-27 85 29 9c1 5.4-36.3 3.3-44 7l53.6.6 1.9-23c1.3 17-7.8 25.5 16.5 21.5-10.5-13.7-1-27-17-30 4.3-6.5 10.2 3.6 13-2 1.8-3.5 14.5-70.3 14-74.1-5-10-8.4-21.2-14-31-8.2-14.2-29.1-35.1-9-17a188 188 0 0 1 24 48c0-11.2 4.4-6 3 2 0 .5-2.9 1-3 2-2.4 14.4-2.5 45.7-8 65l14-1 19-67c.3-7.4-.5-14.7-1-22-1.2-14.8-10.8-44-3-44-2-1.9-18.2-36-13.5-33.5 0 5.9 15.6 32.7 15.4 34.4 0 3.3-3.4 1.2-4 6-.3 3 9.4 44.8 8 58-3.8 12.9-25 79.1-23 86.2.3.7 11.8 12.2 12.5 12.5 2 .4 33.7-1 40-1 10.7 0 14.7 6 23.5-5.6-3.8-20-21.6-102.6-22-111.9-.9-19.9 12-59.6 3.5-38.6l-15 2-1.4-1.5c18.5-20.6 14-48.6 10.8-74h-1.9l-7 34c-4.2 3.2-35.6-8-38-13-1.7-4 .3-37.1 5-28.6l.2.2Z" />
</svg>