<svg
  class="site-logo"
  xmlns="http://www.w3.org/2000/svg"
  viewBox="0 0 1103.5 480.3"
  aria-hidden="true"
>
  <defs>
    <linearGradient id="shimmer" x1="-1" y1="0" x2="0" y2="0">
      <stop offset="0" stop-color="var(--wp--preset--color--contrast)" />
      <stop offset="0.2" stop-color="var(--wp--preset--color--contrast)" />
      <stop offset="0.5" stop-color="var(--wp--preset--color--accent)" />
      <stop offset="0.8" stop-color="var(--wp--preset--color--contrast)" />
      <stop offset="1" stop-color="var(--wp--preset--color--contrast)" />
    </linearGradient>
  </defs>
  <path
    fill="url(#shimmer)"
    d="M124.5.3a22.4 22.4 0 0 1 13.8 23.3 612.2 612.2 0 0 1-5.5 57.6c-2.1 32-41.8 137.2 11.6 138.3-23.8-20.8 6.7-90.9 38.6-68 .7-4.2 5.3-8 8.5-8.9 2.6-.2 7.3 2.2 7.9 4.3 6 18.3 2 37-.4 55.6.1 3.3-1.4 12.5 4 11.3a8.6 8.6 0 0 0 5-11c.5-13-4.4-33 .6-44.3 4-6.3 10.9-6.2 15-.3 4.9 11.3-.7 25 .5 37 .1 7 1.7 14 3.5 20.9 1.9 9 17.9 10 21 1.5 9.8-23.4 6.7-51 17.3-73.8 1.7-2.3 5.3-4.7 7.9-4.6 14.4 3.3 6.5 29 5.6 39.6 5-6.2 17.9-13 16.9-20.6-2.2-25.4 32-59.3 51-33.6 4.3 6.9 4 14.9-2.5 21-9.7 8.6-20 16.1-31.3 22.8 7.2 15.3 20.5 25.5 30.7 38.4 4.6 6.6 8.2 13.9 12.4 21 19.6-44.3 20.1-93.9 24.4-141.4.3-3.3-.7-4.8-3.6-6-20.2-9.4-49.8-13.5-62.7 9.1a8.8 8.8 0 0 1-8.3 5.7c-8.4-6.6 2.7-23.8 9.2-29 18.9-16 43.7-9.7 65.3-4.5 0-13.5-.3-27.5.3-41.1-.3-7.4 11.5-9.5 13.4-2.5 5 15 4.3 30.8 4.4 46.4.1 8.3 1.4 9.6 9.7 9.6V42.7c-.3-6.3 0-15.1 8.2-15.5 14.9-2.1 8.7 37.4 10 47.4 12.8-.8 40.6-1.8 39.6-19.5-.9-5.3-3.2-9.3-9-10.7-5.3-2.5-4.5-10.8 2.7-9.5 27.6 2.3 25 37 2.8 46.4-11.3 6.3-23.6 7.8-36.2 9.3l1.8 63c20-11.3 42.3-2.8 42.6 21.6-.2 18.5-4 37.3.3 55.6 1.9 16 17.6 11 29.4 9.8-38.5-25.7-5.9-91.7 38.3-71.5 3-11.6 17.5-6.9 17.2 3.4.3 6-.4 12-1.4 17.8-.6 13-15 39.7 0 47 5.9 2.4 13.4.8 18-4.2 16.8-20 10.3-53.4 14.3-78.2l4.3-57.3c.2-2.4.4-4.5-2.7-5.5-17.1-5.7-45.3-12.3-54.7 8.4-1.2 3-3.6 5.1-6.5 3.6-10.7-11.5 7.7-29.1 22-31.8 14.5-3.3 28.5-.3 43 2.4 2.3-11.2 1.1-48 11.6-51.7 20.4 2.1 9 40 9.3 54-.4 4.2.1 6.8 4.5 8.4 7 2.5 13.8 5.8 20.8 8.3 12.1 5.7 35.3-6 21.2-19.6-1.4-1.3-2.1-5-1.3-6.4 28.8-15 29.4 77.2-47.2 33-3.7 43-11.5 86-4.9 128.8 1.6 6.4 6.4 7.5 11.2 3 3.7-3.4 5.7-7.4 5.7-12.7 0-19.6 2.9-38.8 9-57.5 9-29.8 27.5-7.5 18.6 12.4-4 11.3-24.3 71.2 2.2 63.1 21.9-4.5 8.8-30.7 23-35.7 11.6-2 11.2 12.4 11.7 20.3.8 6.1-4 18.7 5.8 18.8 20.5-.7 33.8-21 39.7-38.8 1.3-13.6-3.6-27.3-4-41-1.6-19.7 19.4-21.5 25.3-4.2 12 25.4-5.8 62.3 9.2 73.5 7-8.8 1.9-19.4 2.5-29.4-.2-50.9 75.2-50.2 75.6-.5 2 4.7 5.3 4.2 7.6.8 2.4-8 3.7-16-1.2-23.6-17.8-22.6 15.3-36.7 21.5-9.6 18.4-23 58.3-11.7 54.9 20.3 0 6.3-2.2 13.2 2.3 18.4 1.5-1 4-1.8 4.4-3.3 2.7-7.7 7-15.7 6.8-23.6 0-41.7-5.8-83.5-2.9-125.2 0-12 15.5-28.6 21.8-10.7 7.7 40.6 1 82.1 2 123.3 19.9-20.8 36-45 58.2-63.2 7.6-6 20 4.2 13.9 12-22.7 26.2-49.5 47.5-71.3 75.3 33.1 30 76.6 80.2 122.8 84.4 7.3.7 14.3-9.2 20.5-2.8v5c-21 28-54.8 3.7-78-8-24.6-12.7-44.4-33-65.5-49.6 1.2 21.3 6.6 41.7 8.6 62.6-.4 7-6 10.4-12.3 7.5-5-2.4-9-6.2-9.8-12-3-21.6-6.1-41.7-5-64-11.3 7.6-24.5 6.7-28.2-7.7-1.7-6.8-1.8-13.9-2.7-20.8-4.4-17.6-25.3-3.5-27 8.3-3.6 13.7-6 27.6-9.1 41.4-2.5 7.8-2.9 25.5-14.2 23.4-4.5-1-7.6-4.6-7.6-9.9 0-10.1.9-20.5.6-30.6l-13.7 2c-6.6 25.8-41.3 37.2-62.4 20-12.6 9.6-17.5 8.2-31.8-9.7-18.2 19.1-47.2 42-72.2 20.2-16 10.5-36.5 9.5-45.8-9.2-13.9 11.4-29.9 13.3-40.6-3.2-11.1 13.1-27 14.5-42.2 10.4-10-7-19.9-2.6-30-.4-79.6 21.5-63.9-25.6-64.9-83-16.5 1-21 17.6-19.9 31.2-2.3 15 11.5 81.1-18.8 64.8-25.9 21.2-38.3-11.8-39.5-33.5-7 10-14 20.4-21.4 30.6-18.1 25-53.3 16.2-74.6-1 4.3 28 7.7 53.3 13 80.3a7.7 7.7 0 0 0 3.1 4.7c27 16 53.8 32.4 83.5 42.7 36.2 13.4 97 11.4 108-34.3 5.5-55.5-78.8-54.4-105.9-19.3-7.2 8.2-12.4 18.3-18.1 27.8-1.8 2.8-3 6-7 4.8-4-1.2-4.2-4.6-3-8.2 13.7-49.8 67.8-71.5 115.3-60.4 19.2 4 33.1 14.7 39 34 15.1 47.8-39.3 80.6-81.1 80.3-48 2-88.4-24.6-128.7-47 7.9 37.2 19.9 71.7 30 108 .6 2.7-.7 5.9-1.1 8.8h-5a38.2 38.2 0 0 1-13-19.1c-8-24.2-16.1-47.1-22.5-72-33.6 39-89.4 65-136.9 34.4-48-26.9-33.5-95.8 18.3-104.9 35.8-6.5 71.7 3.6 105.5 14.7l-14.2-95.9c-16.5.8-31.6 2.4-40.6-14.7-9.3 4.3-12.3 4.4-21.6 1.8a10 10 0 0 0-5.7.2c-11.7 4-23.6 7.1-36 7.5-27.3 1-44.2-14.7-49.3-41-6.7 6.8-12.8 12.8-18.7 19.1-10.4 16-16.4 34.3-35.2 43-1.3.8-2.5 3.1-2.4 4.6 1.2 49.2 7 98.5 5.2 147.6-1.8 6.7-6.7 7.3-12 2.9-1-.6-1.8-2-2.2-3.3-2.6-9.2-6.8-18.4-7.4-27.7-2.4-39-2.7-77.8-4.4-116.9C2 263.4-11.3 240.4 13 232c4.1-1.8 10.4-1.6 8.8-8-2.3-12.3-4-24.9-6-37.4-4.3-44 63-33.9 68.1 2.9 10-12.1 17.7-26 18.5-41.5-.6-42.2-4.8-84.6 1-126.7 1-11.4 8-23.3 21-21Zm63 332.4c-78.4-1.7-56.4 99 24.1 84 15.8-1 72.2-28.5 66-46.8-2.6-6-1.1-15.2-7.6-18.8a245.9 245.9 0 0 0-82.5-18.4ZM397.7 89c1.4 47-3 92.8-6 139.4.4 5 2.2 32 10.9 22.4 4.3-5 7.3-10.6 7.3-17.5-.2-46.6.2-93.4-.1-139.9-2.4-4.8-6.8-3-12.1-4.4ZM274 232.2c21.2-17 45.2 1 66.3 9.7 1.8-22.3-27-47.2-38.7-66.6-20 13.7-23.9 35.2-27.6 57Zm548.6-28.1c-8.3-42.5-41.6-22.2-37 11.7 2.2 15.7 28.3 21.2 33.2 3.6 1.6-4.4 2.4-9.2 3.8-15.4ZM41.1 223c6.6-4.6 13.4-6.2 17.6-11.5 1.8-9.3 4.3-18.7 1.7-28.2-3-11-14.7-16.2-24-10.6-1.9 1-4 4.3-3.7 6.1 2.4 14.4 5.4 28.7 8.4 44.2Zm495.2-30.5c-1.5-15.6-21.2-12.4-26.3-1.7a78.2 78.2 0 0 0-3.4 8.3c-9.6 21 19.2 36.4 21.8 24.6 2.9-10.3 5.3-20.8 8-31.2Zm-356.2-10.2h-.1c.8-7.9 1.9-17.8-7.7-21-4-1.2-5.4 2-7 4.3a47.3 47.3 0 0 0-8.7 33.5 15 15 0 0 0 13 13.7c5 .7 7.4-.8 8-5.7 1-8.2 1.7-16.5 2.5-24.8Zm150 70.7c-11.3-4.5-21-10.4-32.5-12.6-8.8-1.7-8.4 9.1-3 13 8.5 6.6 26 6.5 35.4-.4ZM118 83.3c2.6-20.4 6.5-40.6 3.8-61.2-4.4 20.2-4 40.8-3.8 61.2ZM313 150.4l1 1.1 16.9-14.5-1.3-1.4a25.1 25.1 0 0 0-16.6 14.8Z"
  />
</svg>
